<svg width="30" height="30" viewBox="0 0 30 30" fill="none" xmlns="http://www.w3.org/2000/svg">
<path d="M20.625 24.375C21.6605 24.375 22.5 23.5355 22.5 22.5C22.5 21.4645 21.6605 20.625 20.625 20.625C19.5895 20.625 18.75 21.4645 18.75 22.5C18.75 23.5355 19.5895 24.375 20.625 24.375Z" fill="#FF6700"/>
<path d="M27.9159 22.0116C27.3367 20.5358 26.3371 19.2625 25.0411 18.3495C23.7451 17.4364 22.2096 16.9237 20.625 16.875C19.0404 16.9237 17.5049 17.4364 16.2089 18.3495C14.9129 19.2625 13.9133 20.5358 13.3341 22.0116L13.125 22.5L13.3341 22.9894C13.9135 24.4649 14.9131 25.738 16.2091 26.6509C17.5051 27.5638 19.0405 28.0763 20.625 28.125C22.2095 28.0763 23.7449 27.5638 25.0409 26.6509C26.3369 25.738 27.3365 24.4649 27.9159 22.9894L28.125 22.5L27.9159 22.0116ZM20.625 26.25C19.8833 26.25 19.1583 26.0301 18.5416 25.618C17.9249 25.206 17.4443 24.6203 17.1605 23.9351C16.8766 23.2498 16.8024 22.4958 16.9471 21.7684C17.0917 21.041 17.4489 20.3728 17.9734 19.8484C18.4978 19.3239 19.166 18.9667 19.8934 18.8221C20.6208 18.6774 21.3748 18.7516 22.0601 19.0355C22.7453 19.3193 23.331 19.7999 23.743 20.4166C24.1551 21.0333 24.375 21.7583 24.375 22.5C24.3738 23.4942 23.9783 24.4473 23.2753 25.1503C22.5723 25.8533 21.6192 26.2488 20.625 26.25ZM6.5625 15.9375H11.25V17.8125H6.5625V15.9375ZM6.5625 11.25H17.8125V13.125H6.5625V11.25ZM6.5625 6.5625H17.8125V8.4375H6.5625V6.5625Z" fill="#FF6700"/>
<path d="M20.625 1.875H3.75C3.25318 1.87648 2.77712 2.0745 2.42581 2.42581C2.0745 2.77712 1.87648 3.25318 1.875 3.75V26.25C1.87648 26.7468 2.0745 27.2229 2.42581 27.5742C2.77712 27.9255 3.25318 28.1235 3.75 28.125H11.25V26.25H3.75V3.75H20.625V14.0625H22.5V3.75C22.4985 3.25318 22.3005 2.77712 21.9492 2.42581C21.5979 2.0745 21.1218 1.87648 20.625 1.875Z" fill="#FF6700"/>
</svg>
