<svg width="30" height="30" viewBox="0 0 30 30" fill="none" xmlns="http://www.w3.org/2000/svg">
<rect width="30" height="30" fill="white" fill-opacity="0.16"/>
<path fill-rule="evenodd" clip-rule="evenodd" d="M18 17C19.2885 17.0001 20.5272 17.4975 21.4578 18.3887C22.3884 19.2798 22.9391 20.4958 22.995 21.783L23 22V24C22.9997 24.2549 22.9021 24.5 22.7272 24.6854C22.5522 24.8707 22.313 24.9822 22.0586 24.9972C21.8042 25.0121 21.5536 24.9293 21.3582 24.7657C21.1627 24.6021 21.0371 24.3701 21.007 24.117L21 24V22C21 21.2348 20.7077 20.4985 20.1827 19.9417C19.6578 19.385 18.9399 19.0499 18.176 19.005L18 19H10C9.23479 19 8.49849 19.2923 7.94174 19.8173C7.38499 20.3422 7.04989 21.0601 7.005 21.824L7 22V24C6.99972 24.2549 6.90212 24.5 6.72715 24.6854C6.55218 24.8707 6.31305 24.9822 6.05861 24.9972C5.80416 25.0121 5.55362 24.9293 5.35817 24.7657C5.16271 24.6021 5.0371 24.3701 5.007 24.117L5 24V22C5.00007 20.7115 5.49754 19.4728 6.38866 18.5422C7.27978 17.6116 8.49575 17.0609 9.783 17.005L10 17H18ZM24 16C24.2652 16 24.5196 16.1054 24.7071 16.2929C24.8946 16.4804 25 16.7348 25 17C25 17.2652 24.8946 17.5196 24.7071 17.7071C24.5196 17.8946 24.2652 18 24 18H23C22.7348 18 22.4804 17.8946 22.2929 17.7071C22.1054 17.5196 22 17.2652 22 17C22 16.7348 22.1054 16.4804 22.2929 16.2929C22.4804 16.1054 22.7348 16 23 16H24ZM14 5C15.3261 5 16.5979 5.52678 17.5355 6.46447C18.4732 7.40215 19 8.67392 19 10C19 11.3261 18.4732 12.5979 17.5355 13.5355C16.5979 14.4732 15.3261 15 14 15C12.6739 15 11.4021 14.4732 10.4645 13.5355C9.52678 12.5979 9 11.3261 9 10C9 8.67392 9.52678 7.40215 10.4645 6.46447C11.4021 5.52678 12.6739 5 14 5ZM24 13C24.2652 13 24.5196 13.1054 24.7071 13.2929C24.8946 13.4804 25 13.7348 25 14C25 14.2652 24.8946 14.5196 24.7071 14.7071C24.5196 14.8946 24.2652 15 24 15H22C21.7348 15 21.4804 14.8946 21.2929 14.7071C21.1054 14.5196 21 14.2652 21 14C21 13.7348 21.1054 13.4804 21.2929 13.2929C21.4804 13.1054 21.7348 13 22 13H24ZM14 7C13.606 7 13.2159 7.0776 12.8519 7.22836C12.488 7.37913 12.1573 7.6001 11.8787 7.87868C11.6001 8.15726 11.3791 8.48797 11.2284 8.85195C11.0776 9.21593 11 9.60603 11 10C11 10.394 11.0776 10.7841 11.2284 11.1481C11.3791 11.512 11.6001 11.8427 11.8787 12.1213C12.1573 12.3999 12.488 12.6209 12.8519 12.7716C13.2159 12.9224 13.606 13 14 13C14.7956 13 15.5587 12.6839 16.1213 12.1213C16.6839 11.5587 17 10.7956 17 10C17 9.20435 16.6839 8.44129 16.1213 7.87868C15.5587 7.31607 14.7956 7 14 7ZM24 10C24.2549 10.0003 24.5 10.0979 24.6854 10.2728C24.8707 10.4478 24.9822 10.687 24.9972 10.9414C25.0121 11.1958 24.9293 11.4464 24.7657 11.6418C24.6021 11.8373 24.3701 11.9629 24.117 11.993L24 12H21C20.7451 11.9997 20.5 11.9021 20.3146 11.7272C20.1293 11.5522 20.0178 11.313 20.0028 11.0586C19.9879 10.8042 20.0707 10.5536 20.2343 10.3582C20.3979 10.1627 20.6299 10.0371 20.883 10.007L21 10H24Z" fill="white"/>
</svg>
