<svg width="70" height="60" viewBox="0 0 70 60" fill="none" xmlns="http://www.w3.org/2000/svg">
<rect width="70" height="60" rx="5" fill="#13A8DA"/>
<path d="M35 46C39.2435 46 43.3131 44.3143 46.3137 41.3137C49.3143 38.3131 51 34.2435 51 30C51 25.7565 49.3143 21.6869 46.3137 18.6863C43.3131 15.6857 39.2435 14 35 14C30.7565 14 26.6869 15.6857 23.6863 18.6863C20.6857 21.6869 19 25.7565 19 30C19 34.2435 20.6857 38.3131 23.6863 41.3137C26.6869 44.3143 30.7565 46 35 46ZM35 10C37.6264 10 40.2272 10.5173 42.6537 11.5224C45.0802 12.5275 47.285 14.0007 49.1421 15.8579C50.9993 17.715 52.4725 19.9198 53.4776 22.3463C54.4827 24.7728 55 27.3736 55 30C55 35.3043 52.8929 40.3914 49.1421 44.1421C45.3914 47.8929 40.3043 50 35 50C23.94 50 15 41 15 30C15 24.6957 17.1071 19.6086 20.8579 15.8579C24.6086 12.1071 29.6957 10 35 10ZM36 20V30.5L45 35.84L43.5 38.3L33 32V20H36Z" fill="white"/>
</svg>
