<svg width="43" height="43" viewBox="0 0 43 43" fill="none" xmlns="http://www.w3.org/2000/svg">
<g filter="url(#filter0_d_2690_74)">
<circle cx="21.2439" cy="21.0486" r="14.0486" fill="#13A8DA"/>
</g>
<path d="M16.5009 14.9386C16.5006 15.4525 16.3263 15.9452 16.0162 16.3084C15.7061 16.6716 15.2856 16.8755 14.8473 16.8752C14.4089 16.875 13.9886 16.6706 13.6788 16.307C13.369 15.9435 13.1951 15.4505 13.1953 14.9366C13.1955 14.4228 13.3699 13.93 13.68 13.5668C13.9901 13.2036 14.4106 12.9997 14.8489 13C15.2873 13.0003 15.7076 13.2046 16.0174 13.5682C16.3272 13.9318 16.5011 14.4247 16.5009 14.9386ZM16.5505 18.31H13.2449V30.4394H16.5505V18.31ZM21.7732 18.31H18.4842V30.4394H21.7402V24.0744C21.7402 20.5286 25.682 20.1992 25.682 24.0744V30.4394H28.9463V22.7568C28.9463 16.7793 23.112 17.0021 21.7402 19.9376L21.7732 18.31Z" fill="white"/>
<defs>
<filter id="filter0_d_2690_74" x="0.195312" y="0" width="42.0977" height="42.0972" filterUnits="userSpaceOnUse" color-interpolation-filters="sRGB">
<feFlood flood-opacity="0" result="BackgroundImageFix"/>
<feColorMatrix in="SourceAlpha" type="matrix" values="0 0 0 0 0 0 0 0 0 0 0 0 0 0 0 0 0 0 127 0" result="hardAlpha"/>
<feMorphology radius="1" operator="dilate" in="SourceAlpha" result="effect1_dropShadow_2690_74"/>
<feOffset/>
<feGaussianBlur stdDeviation="3"/>
<feComposite in2="hardAlpha" operator="out"/>
<feColorMatrix type="matrix" values="0 0 0 0 0 0 0 0 0 0 0 0 0 0 0 0 0 0 0.15 0"/>
<feBlend mode="normal" in2="BackgroundImageFix" result="effect1_dropShadow_2690_74"/>
<feBlend mode="normal" in="SourceGraphic" in2="effect1_dropShadow_2690_74" result="shape"/>
</filter>
</defs>
</svg>
