<svg width="43" height="43" viewBox="0 0 43 43" fill="none" xmlns="http://www.w3.org/2000/svg">
<g filter="url(#filter0_d_2690_68)">
<circle cx="21.4392" cy="21.0486" r="14.0486" fill="#13A8DA"/>
</g>
<path d="M29.6787 14.9376C29.0424 15.2767 28.3565 15.4995 27.6458 15.6061C28.373 15.0926 28.9349 14.2788 29.1994 13.3003C28.5135 13.7847 27.7532 14.1238 26.9516 14.3176C26.2987 13.4844 25.3815 13 24.3402 13C22.3982 13 20.8115 14.8601 20.8115 17.1562C20.8115 17.4856 20.8446 17.8053 20.9024 18.1056C17.9605 17.9312 15.3408 16.2746 13.5972 13.7654C13.2914 14.3757 13.1178 15.0926 13.1178 15.8483C13.1178 17.2918 13.7376 18.5706 14.6962 19.2972C14.1095 19.2972 13.5641 19.1035 13.0848 18.8128V18.8419C13.0848 20.857 14.3078 22.5427 15.9276 22.9206C15.4076 23.0881 14.8616 23.1113 14.3326 22.9884C14.5571 23.8143 14.9967 24.5369 15.5896 25.0548C16.1825 25.5726 16.8989 25.8596 17.6382 25.8754C16.3851 27.0385 14.8318 27.6671 13.2335 27.658C12.9526 27.658 12.6716 27.6386 12.3906 27.5999C13.9608 28.7818 15.8284 29.4697 17.8283 29.4697C24.3402 29.4697 27.9185 23.1337 27.9185 17.6406C27.9185 17.4565 27.9185 17.2821 27.9102 17.098C28.6044 16.5168 29.1994 15.7805 29.6787 14.9376Z" fill="white"/>
<defs>
<filter id="filter0_d_2690_68" x="0.390625" y="0" width="42.0977" height="42.0972" filterUnits="userSpaceOnUse" color-interpolation-filters="sRGB">
<feFlood flood-opacity="0" result="BackgroundImageFix"/>
<feColorMatrix in="SourceAlpha" type="matrix" values="0 0 0 0 0 0 0 0 0 0 0 0 0 0 0 0 0 0 127 0" result="hardAlpha"/>
<feMorphology radius="1" operator="dilate" in="SourceAlpha" result="effect1_dropShadow_2690_68"/>
<feOffset/>
<feGaussianBlur stdDeviation="3"/>
<feComposite in2="hardAlpha" operator="out"/>
<feColorMatrix type="matrix" values="0 0 0 0 0 0 0 0 0 0 0 0 0 0 0 0 0 0 0.15 0"/>
<feBlend mode="normal" in2="BackgroundImageFix" result="effect1_dropShadow_2690_68"/>
<feBlend mode="normal" in="SourceGraphic" in2="effect1_dropShadow_2690_68" result="shape"/>
</filter>
</defs>
</svg>
