<svg width="99" height="33" viewBox="0 0 99 33" fill="none" xmlns="http://www.w3.org/2000/svg">
<rect x="0.5" y="0.5" width="98" height="32" fill="#13A8DA" stroke="#B30002"/>
<path d="M38.1562 10.625H42.1797C43.0443 10.625 43.7812 10.7552 44.3906 11.0156C45 11.276 45.4661 11.6615 45.7891 12.1719C46.1172 12.6771 46.2812 13.3021 46.2812 14.0469C46.2812 14.6146 46.1771 15.1146 45.9688 15.5469C45.7604 15.9792 45.4661 16.3438 45.0859 16.6406C44.7057 16.9323 44.2526 17.1589 43.7266 17.3203L43.1328 17.6094H39.5156L39.5 16.0547H42.2109C42.6797 16.0547 43.0703 15.9714 43.3828 15.8047C43.6953 15.638 43.9297 15.4115 44.0859 15.125C44.2474 14.8333 44.3281 14.5052 44.3281 14.1406C44.3281 13.7448 44.25 13.401 44.0938 13.1094C43.9427 12.8125 43.7083 12.5859 43.3906 12.4297C43.0729 12.2682 42.6693 12.1875 42.1797 12.1875H40.1172V22H38.1562V10.625ZM44.6484 22L41.9766 16.8906L44.0312 16.8828L46.7422 21.8984V22H44.6484ZM51.7734 22.1562C51.1484 22.1562 50.5833 22.0547 50.0781 21.8516C49.5781 21.6432 49.151 21.3542 48.7969 20.9844C48.4479 20.6146 48.1797 20.1797 47.9922 19.6797C47.8047 19.1797 47.7109 18.6406 47.7109 18.0625V17.75C47.7109 17.0885 47.8073 16.4896 48 15.9531C48.1927 15.4167 48.4609 14.9583 48.8047 14.5781C49.1484 14.1927 49.5547 13.8984 50.0234 13.6953C50.4922 13.4922 51 13.3906 51.5469 13.3906C52.151 13.3906 52.6797 13.4922 53.1328 13.6953C53.5859 13.8984 53.9609 14.1849 54.2578 14.5547C54.5599 14.9193 54.7839 15.3542 54.9297 15.8594C55.0807 16.3646 55.1562 16.9219 55.1562 17.5312V18.3359H48.625V16.9844H53.2969V16.8359C53.2865 16.4974 53.2188 16.1797 53.0938 15.8828C52.974 15.5859 52.7891 15.3464 52.5391 15.1641C52.2891 14.9818 51.9557 14.8906 51.5391 14.8906C51.2266 14.8906 50.9479 14.9583 50.7031 15.0938C50.4635 15.224 50.263 15.4141 50.1016 15.6641C49.9401 15.9141 49.8151 16.2161 49.7266 16.5703C49.6432 16.9193 49.6016 17.3125 49.6016 17.75V18.0625C49.6016 18.4323 49.651 18.776 49.75 19.0938C49.8542 19.4062 50.0052 19.6797 50.2031 19.9141C50.401 20.1484 50.6406 20.3333 50.9219 20.4688C51.2031 20.599 51.5234 20.6641 51.8828 20.6641C52.3359 20.6641 52.7396 20.5729 53.0938 20.3906C53.4479 20.2083 53.7552 19.9505 54.0156 19.6172L55.0078 20.5781C54.8255 20.8438 54.5885 21.099 54.2969 21.3438C54.0052 21.5833 53.6484 21.7786 53.2266 21.9297C52.8099 22.0807 52.3255 22.1562 51.7734 22.1562ZM58.5156 15.1719V25.25H56.6328V13.5469H58.3672L58.5156 15.1719ZM64.0234 17.6953V17.8594C64.0234 18.474 63.9505 19.0443 63.8047 19.5703C63.6641 20.0911 63.4531 20.5469 63.1719 20.9375C62.8958 21.3229 62.5547 21.6224 62.1484 21.8359C61.7422 22.0495 61.2734 22.1562 60.7422 22.1562C60.2161 22.1562 59.7552 22.0599 59.3594 21.8672C58.9688 21.6693 58.638 21.3906 58.3672 21.0312C58.0964 20.6719 57.8776 20.25 57.7109 19.7656C57.5495 19.276 57.4349 18.7396 57.3672 18.1562V17.5234C57.4349 16.9036 57.5495 16.3411 57.7109 15.8359C57.8776 15.3307 58.0964 14.8958 58.3672 14.5312C58.638 14.1667 58.9688 13.8854 59.3594 13.6875C59.75 13.4896 60.2057 13.3906 60.7266 13.3906C61.2578 13.3906 61.7292 13.4948 62.1406 13.7031C62.5521 13.9062 62.8984 14.1979 63.1797 14.5781C63.4609 14.9531 63.6719 15.4062 63.8125 15.9375C63.9531 16.4635 64.0234 17.0495 64.0234 17.6953ZM62.1406 17.8594V17.6953C62.1406 17.3047 62.1042 16.9427 62.0312 16.6094C61.9583 16.2708 61.8438 15.974 61.6875 15.7188C61.5312 15.4635 61.3307 15.2656 61.0859 15.125C60.8464 14.9792 60.5573 14.9062 60.2188 14.9062C59.8854 14.9062 59.599 14.9635 59.3594 15.0781C59.1198 15.1875 58.9193 15.3411 58.7578 15.5391C58.5964 15.737 58.4714 15.9688 58.3828 16.2344C58.2943 16.4948 58.2318 16.7786 58.1953 17.0859V18.6016C58.2578 18.9766 58.3646 19.3203 58.5156 19.6328C58.6667 19.9453 58.8802 20.1953 59.1562 20.3828C59.4375 20.5651 59.7969 20.6562 60.2344 20.6562C60.5729 20.6562 60.862 20.5833 61.1016 20.4375C61.3411 20.2917 61.5365 20.0911 61.6875 19.8359C61.8438 19.5755 61.9583 19.276 62.0312 18.9375C62.1042 18.599 62.1406 18.2396 62.1406 17.8594ZM65.2656 17.8672V17.6875C65.2656 17.0781 65.3542 16.513 65.5312 15.9922C65.7083 15.4661 65.9635 15.0104 66.2969 14.625C66.6354 14.2344 67.0469 13.9323 67.5312 13.7188C68.0208 13.5 68.5729 13.3906 69.1875 13.3906C69.8073 13.3906 70.3594 13.5 70.8438 13.7188C71.3333 13.9323 71.7474 14.2344 72.0859 14.625C72.4245 15.0104 72.6823 15.4661 72.8594 15.9922C73.0365 16.513 73.125 17.0781 73.125 17.6875V17.8672C73.125 18.4766 73.0365 19.0417 72.8594 19.5625C72.6823 20.0833 72.4245 20.5391 72.0859 20.9297C71.7474 21.3151 71.3359 21.6172 70.8516 21.8359C70.3672 22.0495 69.8177 22.1562 69.2031 22.1562C68.5833 22.1562 68.0286 22.0495 67.5391 21.8359C67.0547 21.6172 66.6432 21.3151 66.3047 20.9297C65.9661 20.5391 65.7083 20.0833 65.5312 19.5625C65.3542 19.0417 65.2656 18.4766 65.2656 17.8672ZM67.1484 17.6875V17.8672C67.1484 18.2474 67.1875 18.6068 67.2656 18.9453C67.3438 19.2839 67.4661 19.5807 67.6328 19.8359C67.7995 20.0911 68.013 20.2917 68.2734 20.4375C68.5339 20.5833 68.8438 20.6562 69.2031 20.6562C69.5521 20.6562 69.8542 20.5833 70.1094 20.4375C70.3698 20.2917 70.5833 20.0911 70.75 19.8359C70.9167 19.5807 71.0391 19.2839 71.1172 18.9453C71.2005 18.6068 71.2422 18.2474 71.2422 17.8672V17.6875C71.2422 17.3125 71.2005 16.9583 71.1172 16.625C71.0391 16.2865 70.9141 15.987 70.7422 15.7266C70.5755 15.4661 70.362 15.263 70.1016 15.1172C69.8464 14.9661 69.5417 14.8906 69.1875 14.8906C68.8333 14.8906 68.526 14.9661 68.2656 15.1172C68.0104 15.263 67.7995 15.4661 67.6328 15.7266C67.4661 15.987 67.3438 16.2865 67.2656 16.625C67.1875 16.9583 67.1484 17.3125 67.1484 17.6875ZM76.5938 15.1562V22H74.7109V13.5469H76.5078L76.5938 15.1562ZM79.1797 13.4922L79.1641 15.2422C79.0495 15.2214 78.9245 15.2057 78.7891 15.1953C78.6589 15.1849 78.5286 15.1797 78.3984 15.1797C78.0755 15.1797 77.7917 15.2266 77.5469 15.3203C77.3021 15.4089 77.0964 15.5391 76.9297 15.7109C76.7682 15.8776 76.6432 16.0807 76.5547 16.3203C76.4661 16.5599 76.4141 16.8281 76.3984 17.125L75.9688 17.1562C75.9688 16.625 76.0208 16.1328 76.125 15.6797C76.2292 15.2266 76.3854 14.8281 76.5938 14.4844C76.8073 14.1406 77.0729 13.8724 77.3906 13.6797C77.7135 13.487 78.0859 13.3906 78.5078 13.3906C78.6224 13.3906 78.7448 13.401 78.875 13.4219C79.0104 13.4427 79.112 13.4661 79.1797 13.4922ZM84.625 13.5469V14.9219H79.8594V13.5469H84.625ZM81.2344 11.4766H83.1172V19.6641C83.1172 19.9245 83.1536 20.125 83.2266 20.2656C83.3047 20.401 83.4115 20.4922 83.5469 20.5391C83.6823 20.5859 83.8411 20.6094 84.0234 20.6094C84.1536 20.6094 84.2786 20.6016 84.3984 20.5859C84.5182 20.5703 84.6146 20.5547 84.6875 20.5391L84.6953 21.9766C84.5391 22.0234 84.3568 22.0651 84.1484 22.1016C83.9453 22.138 83.7109 22.1562 83.4453 22.1562C83.013 22.1562 82.6302 22.0807 82.2969 21.9297C81.9635 21.7734 81.7031 21.5208 81.5156 21.1719C81.3281 20.8229 81.2344 20.3594 81.2344 19.7812V11.4766Z" fill="#B30002"/>
<path d="M22 21.4444C22.2519 21.4444 22.4631 21.3591 22.6338 21.1884C22.8044 21.0178 22.8895 20.8068 22.8889 20.5556C22.8883 20.3043 22.803 20.0933 22.6329 19.9227C22.4628 19.752 22.2519 19.6667 22 19.6667C21.7481 19.6667 21.5372 19.752 21.3671 19.9227C21.197 20.0933 21.1117 20.3043 21.1111 20.5556C21.1105 20.8068 21.1959 21.0181 21.3671 21.1893C21.5384 21.3606 21.7493 21.4456 22 21.4444ZM21.1111 17.8889H22.8889V12.5556H21.1111V17.8889ZM18.6667 25L14 20.3333V13.6667L18.6667 9H25.3333L30 13.6667V20.3333L25.3333 25H18.6667Z" fill="#B30002"/>
</svg>
