<svg width="30" height="30" viewBox="0 0 30 30" fill="none" xmlns="http://www.w3.org/2000/svg">
<rect width="30" height="30" fill="white" fill-opacity="0.16"/>
<g clip-path="url(#clip0_2690_141)">
<path d="M14.9923 3.94075C14.6988 3.94123 14.4162 4.0514 14.1998 4.24963L3.35418 13.8119L3.3441 13.8211C2.99514 14.1439 2.91402 14.6707 3.0897 15.0551C3.26538 15.4396 3.67722 15.7149 4.14426 15.7151H6.94074V24.9571C6.94074 25.588 7.48986 26.0587 8.09202 26.0589H21.9074C22.5095 26.0589 23.0587 25.588 23.0587 24.9573V15.7151H25.8554C26.3224 15.7151 26.7343 15.4401 26.9099 15.0554C27.0856 14.6709 27.0045 14.1439 26.6555 13.8211L26.6455 13.8119L15.7999 4.24963C15.5796 4.04779 15.291 3.93736 14.9923 3.94075ZM14.9999 9.76963C17.5439 9.76963 19.6279 11.848 19.6279 14.3846C19.6279 14.9954 19.5062 15.5795 19.2871 16.1145C19.2398 16.2556 19.1807 16.3924 19.1104 16.5235L15.5608 22.5643C15.1859 23.0723 14.8864 23.1842 14.4355 22.5955L11.2171 17.032C10.6675 16.2586 10.3722 15.3334 10.372 14.3846C10.372 11.8478 12.4559 9.76939 14.9999 9.76939M14.9999 11.9318C13.63 11.9318 12.5404 13.0183 12.5404 14.3843C12.5404 15.7504 13.63 16.8369 14.9999 16.8369C16.3699 16.8369 17.4595 15.7504 17.4595 14.3846C17.4595 13.0185 16.3699 11.9323 14.9999 11.9323" fill="white"/>
</g>
<defs>
<clipPath id="clip0_2690_141">
<rect width="24" height="24" fill="white" transform="translate(3 3)"/>
</clipPath>
</defs>
</svg>
