<svg width="24" height="23" viewBox="0 0 24 23" fill="none" xmlns="http://www.w3.org/2000/svg">
<path d="M12 7.5C12 7.17917 11.7375 6.91667 11.4167 6.91667H8.395L8.79167 5.06167V4.9275C8.79167 4.74667 8.71583 4.58333 8.59917 4.46083L8.13833 4L5.25667 6.88167C5.09917 7.03917 5 7.26083 5 7.5V11.2917C5 11.7758 5.39083 12.1667 5.875 12.1667H9.8125C10.1742 12.1667 10.4833 11.945 10.6175 11.6358L11.9358 8.55C11.9767 8.45083 12 8.34 12 8.22917V7.5ZM10.8333 8.15917L9.62 11H6.16667V7.6225L7.2925 6.49667L6.96 8.08333H10.8333V8.15917ZM18.125 9.83333H14.1875C13.8258 9.83333 13.5167 10.055 13.3825 10.3642L12.0642 13.45C12.0233 13.5492 12 13.66 12 13.7708V14.5C12 14.8208 12.2625 15.0833 12.5833 15.0833H15.605L15.2083 16.9383V17.0783C15.2083 17.2592 15.2842 17.4167 15.4008 17.545L15.8617 18L18.7433 15.1183C18.9008 14.9608 19 14.7392 19 14.5V10.7083C19 10.2242 18.6092 9.83333 18.125 9.83333ZM17.8333 14.3775L16.7075 15.5033L17.04 13.9167H13.1667V13.8408L14.38 11H17.8333V14.3775Z" fill="white"/>
<path d="M4.017 16.3432C4.1727 16.4996 4.292 16.6883 4.36641 16.896C4.44082 17.1037 4.46851 17.3253 4.4475 17.5449C4.34182 18.5614 4.14196 19.5658 3.8505 20.5453C5.943 20.0608 7.221 19.4997 7.8015 19.2056C8.13076 19.0389 8.50993 18.9993 8.8665 19.0946C9.88845 19.3682 10.9421 19.5054 12 19.5027C17.994 19.5027 22.5 15.2916 22.5 10.5014C22.5 5.71128 17.994 1.50021 12 1.50021C6.006 1.50021 1.5 5.71279 1.5 10.5014C1.5 12.7037 2.4255 14.747 4.017 16.3432ZM3.2775 22.2015C2.92209 22.2719 2.56554 22.3364 2.208 22.3951C1.908 22.4431 1.68 22.131 1.7985 21.852C1.93133 21.5377 2.0534 21.219 2.1645 20.8964L2.169 20.8814C2.541 19.8012 2.844 18.559 2.955 17.4024C1.1145 15.5571 0 13.1418 0 10.5014C0 4.70165 5.373 0 12 0C18.627 0 24 4.70165 24 10.5014C24 16.3012 18.627 21.0029 12 21.0029C10.8114 21.0055 9.62768 20.8512 8.4795 20.5438C7.6995 20.9384 6.021 21.657 3.2775 22.2015Z" fill="white"/>
</svg>
