<svg width="70" height="60" viewBox="0 0 70 60" fill="none" xmlns="http://www.w3.org/2000/svg">
<rect width="70" height="60" rx="5" fill="#13A8DA"/>
<path fill-rule="evenodd" clip-rule="evenodd" d="M39.9997 33.334C42.1471 33.3341 44.2116 34.1632 45.7626 35.6484C47.3137 37.1336 48.2315 39.1602 48.3247 41.3057L48.333 41.6673V45.0007C48.3325 45.4254 48.1699 45.834 47.8783 46.1429C47.5866 46.4518 47.1881 46.6377 46.764 46.6626C46.3399 46.6875 45.9224 46.5495 45.5966 46.2769C45.2709 46.0042 45.0615 45.6175 45.0113 45.1957L44.9997 45.0007V41.6673C44.9997 40.392 44.5125 39.1648 43.6375 38.2369C42.7626 37.309 41.5662 36.7505 40.293 36.6756L39.9997 36.6673H26.6663C25.391 36.6672 24.1638 37.1545 23.2359 38.0295C22.308 38.9044 21.7495 40.1008 21.6747 41.374L21.6663 41.6673V45.0007C21.6659 45.4254 21.5032 45.834 21.2116 46.1429C20.92 46.4518 20.5214 46.6377 20.0973 46.6626C19.6733 46.6875 19.2557 46.5495 18.93 46.2769C18.6042 46.0042 18.3948 45.6175 18.3447 45.1957L18.333 45.0007V41.6673C18.3331 39.5199 19.1622 37.4554 20.6474 35.9044C22.1326 34.3533 24.1593 33.4355 26.3047 33.3423L26.6663 33.334H39.9997ZM49.9997 31.6673C50.4417 31.6673 50.8656 31.8429 51.1782 32.1555C51.4907 32.468 51.6663 32.892 51.6663 33.334C51.6663 33.776 51.4907 34.1999 51.1782 34.5125C50.8656 34.8251 50.4417 35.0007 49.9997 35.0007H48.333C47.891 35.0007 47.4671 34.8251 47.1545 34.5125C46.8419 34.1999 46.6663 33.776 46.6663 33.334C46.6663 32.892 46.8419 32.468 47.1545 32.1555C47.4671 31.8429 47.891 31.6673 48.333 31.6673H49.9997ZM33.333 13.334C35.5431 13.334 37.6628 14.212 39.2256 15.7748C40.7884 17.3376 41.6663 19.4572 41.6663 21.6673C41.6663 23.8775 40.7884 25.9971 39.2256 27.5599C37.6628 29.1227 35.5431 30.0007 33.333 30.0007C31.1229 30.0007 29.0033 29.1227 27.4405 27.5599C25.8776 25.9971 24.9997 23.8775 24.9997 21.6673C24.9997 19.4572 25.8776 17.3376 27.4405 15.7748C29.0033 14.212 31.1229 13.334 33.333 13.334ZM49.9997 26.6673C50.4417 26.6673 50.8656 26.8429 51.1782 27.1555C51.4907 27.468 51.6663 27.892 51.6663 28.334C51.6663 28.776 51.4907 29.1999 51.1782 29.5125C50.8656 29.8251 50.4417 30.0007 49.9997 30.0007H46.6663C46.2243 30.0007 45.8004 29.8251 45.4878 29.5125C45.1753 29.1999 44.9997 28.776 44.9997 28.334C44.9997 27.892 45.1753 27.468 45.4878 27.1555C45.8004 26.8429 46.2243 26.6673 46.6663 26.6673H49.9997ZM33.333 16.6673C32.6764 16.6673 32.0262 16.7966 31.4196 17.0479C30.813 17.2992 30.2618 17.6675 29.7975 18.1318C29.3332 18.5961 28.9649 19.1473 28.7136 19.7539C28.4623 20.3605 28.333 21.0107 28.333 21.6673C28.333 22.3239 28.4623 22.9741 28.7136 23.5807C28.9649 24.1874 29.3332 24.7386 29.7975 25.2029C30.2618 25.6671 30.813 26.0354 31.4196 26.2867C32.0262 26.538 32.6764 26.6673 33.333 26.6673C34.6591 26.6673 35.9309 26.1405 36.8685 25.2029C37.8062 24.2652 38.333 22.9934 38.333 21.6673C38.333 20.3412 37.8062 19.0695 36.8685 18.1318C35.9309 17.1941 34.6591 16.6673 33.333 16.6673ZM49.9997 21.6673C50.4245 21.6678 50.8331 21.8304 51.142 22.1221C51.4508 22.4137 51.6367 22.8122 51.6616 23.2363C51.6865 23.6604 51.5485 24.0779 51.2759 24.4037C51.0033 24.7295 50.6165 24.9388 50.1947 24.989L49.9997 25.0007H44.9997C44.5749 25.0002 44.1663 24.8375 43.8574 24.5459C43.5485 24.2543 43.3626 23.8557 43.3377 23.4317C43.3128 23.0076 43.4508 22.59 43.7234 22.2643C43.9961 21.9385 44.3828 21.7292 44.8047 21.679L44.9997 21.6673H49.9997Z" fill="white"/>
</svg>
