<svg width="43" height="43" viewBox="0 0 43 43" fill="none" >
<g filter="url(#filter0_d_2696_280)">
<circle cx="21.0486" cy="21.0486" r="14.0486" fill="#13A8DA"/>
</g>
<path d="M20.9978 18.3322C19.5289 18.3322 18.3301 19.531 18.3301 21C18.3301 22.469 19.5289 23.6678 20.9978 23.6678C22.4668 23.6678 23.6656 22.469 23.6656 21C23.6656 19.531 22.4668 18.3322 20.9978 18.3322ZM28.9991 21C28.9991 19.8953 29.0091 18.8005 28.9471 17.6978C28.885 16.4169 28.5928 15.2801 27.6562 14.3435C26.7176 13.4049 25.5829 13.1147 24.302 13.0526C23.1973 12.9906 22.1026 13.0006 20.9999 13.0006C19.8951 13.0006 18.8004 12.9906 17.6977 13.0526C16.4168 13.1147 15.2801 13.4069 14.3435 14.3435C13.4049 15.2821 13.1147 16.4169 13.0526 17.6978C12.9906 18.8025 13.0006 19.8973 13.0006 21C13.0006 22.1027 12.9906 23.1995 13.0526 24.3022C13.1147 25.5831 13.4069 26.7199 14.3435 27.6565C15.2821 28.5951 16.4168 28.8853 17.6977 28.9474C18.8024 29.0094 19.8971 28.9994 20.9999 28.9994C22.1046 28.9994 23.1993 29.0094 24.302 28.9474C25.5829 28.8853 26.7196 28.5931 27.6562 27.6565C28.5948 26.7179 28.885 25.5831 28.9471 24.3022C29.0111 23.1995 28.9991 22.1047 28.9991 21ZM20.9978 25.1048C18.7264 25.1048 16.8932 23.2715 16.8932 21C16.8932 18.7285 18.7264 16.8952 20.9978 16.8952C23.2693 16.8952 25.1025 18.7285 25.1025 21C25.1025 23.2715 23.2693 25.1048 20.9978 25.1048ZM25.2707 17.6858C24.7403 17.6858 24.312 17.2575 24.312 16.7271C24.312 16.1968 24.7403 15.7685 25.2707 15.7685C25.801 15.7685 26.2293 16.1968 26.2293 16.7271C26.2294 16.853 26.2048 16.9778 26.1566 17.0942C26.1085 17.2105 26.0379 17.3163 25.9489 17.4053C25.8598 17.4944 25.7541 17.565 25.6377 17.6131C25.5213 17.6612 25.3966 17.6859 25.2707 17.6858Z" fill="white"/>
<defs>
<filter id="filter0_d_2696_280" x="0" y="0" width="42.0977" height="42.0972" filterUnits="userSpaceOnUse" color-interpolation-filters="sRGB">
<feFlood flood-opacity="0" result="BackgroundImageFix"/>
<feColorMatrix in="SourceAlpha" type="matrix" values="0 0 0 0 0 0 0 0 0 0 0 0 0 0 0 0 0 0 127 0" result="hardAlpha"/>
<feMorphology radius="1" operator="dilate" in="SourceAlpha" result="effect1_dropShadow_2696_280"/>
<feOffset/>
<feGaussianBlur stdDeviation="3"/>
<feComposite in2="hardAlpha" operator="out"/>
<feColorMatrix type="matrix" values="0 0 0 0 0 0 0 0 0 0 0 0 0 0 0 0 0 0 0.15 0"/>
<feBlend mode="normal" in2="BackgroundImageFix" result="effect1_dropShadow_2696_280"/>
<feBlend mode="normal" in="SourceGraphic" in2="effect1_dropShadow_2696_280" result="shape"/>
</filter>
</defs>
</svg>
