<svg width="43" height="43" viewBox="0 0 43 43" fill="none" xmlns="http://www.w3.org/2000/svg">
<g filter="url(#filter0_d_2696_277)">
<circle cx="21.1463" cy="21.0486" r="14.0486" fill="#13A8DA"/>
</g>
<path d="M26.766 15.3397C26.0288 14.5953 25.1507 14.005 24.1831 13.6033C23.2154 13.2017 22.1775 12.9966 21.1298 13C16.7399 13 13.162 16.5779 13.162 20.9679C13.162 22.3749 13.5318 23.7418 14.2233 24.9478L13.0977 29.0804L17.3188 27.9709C18.4846 28.6061 19.7951 28.9438 21.1298 28.9438C25.5198 28.9438 29.0977 25.3659 29.0977 20.9759C29.0977 18.8453 28.2695 16.8433 26.766 15.3397ZM21.1298 27.593C19.9399 27.593 18.774 27.2714 17.7529 26.6684L17.5117 26.5237L15.0032 27.183L15.6705 24.7387L15.5097 24.4895C14.8484 23.4339 14.4974 22.2135 14.4967 20.9679C14.4967 17.3176 17.4715 14.3428 21.1218 14.3428C22.8906 14.3428 24.5549 15.0342 25.8012 16.2885C26.4184 16.9026 26.9074 17.6332 27.2401 18.4379C27.5727 19.2425 27.7422 20.1052 27.7389 20.9759C27.7549 24.6262 24.7801 27.593 21.1298 27.593ZM24.764 22.6402C24.563 22.5438 23.5821 22.0613 23.4052 21.989C23.2203 21.9247 23.0916 21.8925 22.9549 22.0855C22.8183 22.2865 22.4404 22.7367 22.3278 22.8654C22.2152 23.0021 22.0946 23.0181 21.8936 22.9136C21.6926 22.8171 21.0494 22.6 20.2936 21.9247C19.6987 21.394 19.3047 20.7428 19.1841 20.5418C19.0715 20.3407 19.168 20.2362 19.2725 20.1317C19.361 20.0433 19.4735 19.8985 19.57 19.786C19.6665 19.6734 19.7067 19.585 19.771 19.4563C19.8353 19.3196 19.8032 19.2071 19.7549 19.1106C19.7067 19.0141 19.3047 18.0332 19.1439 17.6312C18.9831 17.2453 18.8142 17.2935 18.6936 17.2855H18.3077C18.171 17.2855 17.962 17.3337 17.7771 17.5347C17.6002 17.7357 17.0856 18.2181 17.0856 19.199C17.0856 20.1799 17.8012 21.1287 17.8977 21.2573C17.9941 21.394 19.3047 23.4041 21.2987 24.2644C21.773 24.4734 22.1429 24.594 22.4323 24.6825C22.9067 24.8352 23.3409 24.8111 23.6866 24.7629C24.0725 24.7066 24.8685 24.2804 25.0293 23.8141C25.1982 23.3478 25.1982 22.9538 25.1419 22.8654C25.0856 22.7769 24.965 22.7367 24.764 22.6402Z" fill="white"/>
<defs>
<filter id="filter0_d_2696_277" x="0.0976562" y="0" width="42.0977" height="42.0972" filterUnits="userSpaceOnUse" color-interpolation-filters="sRGB">
<feFlood flood-opacity="0" result="BackgroundImageFix"/>
<feColorMatrix in="SourceAlpha" type="matrix" values="0 0 0 0 0 0 0 0 0 0 0 0 0 0 0 0 0 0 127 0" result="hardAlpha"/>
<feMorphology radius="1" operator="dilate" in="SourceAlpha" result="effect1_dropShadow_2696_277"/>
<feOffset/>
<feGaussianBlur stdDeviation="3"/>
<feComposite in2="hardAlpha" operator="out"/>
<feColorMatrix type="matrix" values="0 0 0 0 0 0 0 0 0 0 0 0 0 0 0 0 0 0 0.15 0"/>
<feBlend mode="normal" in2="BackgroundImageFix" result="effect1_dropShadow_2696_277"/>
<feBlend mode="normal" in="SourceGraphic" in2="effect1_dropShadow_2696_277" result="shape"/>
</filter>
</defs>
</svg>
