<svg width="30" height="30" viewBox="0 0 30 30" fill="none" xmlns="http://www.w3.org/2000/svg">
<rect width="30" height="30" fill="white" fill-opacity="0.16"/>
<path d="M15 24.6C17.5461 24.6 19.9879 23.5886 21.7882 21.7882C23.5886 19.9879 24.6 17.5461 24.6 15C24.6 12.4539 23.5886 10.0121 21.7882 8.21178C19.9879 6.41143 17.5461 5.4 15 5.4C12.4539 5.4 10.0121 6.41143 8.21178 8.21178C6.41143 10.0121 5.4 12.4539 5.4 15C5.4 17.5461 6.41143 19.9879 8.21178 21.7882C10.0121 23.5886 12.4539 24.6 15 24.6ZM15 3C16.5759 3 18.1363 3.31039 19.5922 3.91345C21.0481 4.5165 22.371 5.40042 23.4853 6.51472C24.5996 7.62902 25.4835 8.95189 26.0866 10.4078C26.6896 11.8637 27 13.4241 27 15C27 18.1826 25.7357 21.2348 23.4853 23.4853C21.2348 25.7357 18.1826 27 15 27C8.364 27 3 21.6 3 15C3 11.8174 4.26428 8.76516 6.51472 6.51472C8.76516 4.26428 11.8174 3 15 3ZM15.6 9V15.3L21 18.504L20.1 19.98L13.8 16.2V9H15.6Z" fill="white"/>
</svg>
