<svg width="24" height="25" viewBox="0 0 24 25" fill="none" xmlns="http://www.w3.org/2000/svg">
<g clip-path="url(#clip0_2812_650)">
<path d="M11.3812 -0.0317443C11.4548 -0.0320856 11.4548 -0.0320856 11.5298 -0.0324338C11.6334 -0.0325954 11.7369 -0.0321583 11.8405 -0.0311637C11.9988 -0.0298906 12.157 -0.0311521 12.3154 -0.0326733C12.4161 -0.0325162 12.5168 -0.0322114 12.6175 -0.0317443C12.6648 -0.0322257 12.7121 -0.0327071 12.7608 -0.0332031C12.9798 -0.029494 13.0896 -0.026229 13.2696 0.108882C13.3489 0.223482 13.3924 0.291848 13.4161 0.427177C13.4228 0.463275 13.4296 0.499373 13.4365 0.536566C13.4428 0.57527 13.449 0.613974 13.4554 0.653851C13.4627 0.694394 13.47 0.734938 13.4774 0.77671C13.5016 0.913941 13.5241 1.05138 13.5462 1.18895C13.5549 1.24199 13.5636 1.29502 13.5725 1.34966C13.6282 1.69216 13.6818 2.03495 13.7337 2.37806C13.7617 2.3798 13.7896 2.38154 13.8184 2.38334C14.1309 2.40824 14.4134 2.47766 14.7123 2.57129C14.798 2.59784 14.8838 2.62417 14.9697 2.65025C15.007 2.6619 15.0443 2.67356 15.0827 2.68556C15.1994 2.71843 15.1994 2.71843 15.3744 2.71101C15.4757 2.62446 15.4757 2.62446 15.5707 2.50589C15.6076 2.46229 15.6446 2.4187 15.6827 2.37378C15.8626 2.15441 16.041 1.93385 16.2181 1.71216C16.3027 1.60683 16.3878 1.50185 16.473 1.39704C16.5116 1.34934 16.5502 1.30164 16.59 1.25249C16.7175 1.10625 16.7525 1.09679 16.9463 1.07636C17.2007 1.08019 17.3837 1.19692 17.598 1.3257C17.6384 1.34918 17.6788 1.37267 17.7204 1.39687C17.8038 1.44554 17.887 1.49459 17.97 1.54399C18.0882 1.61412 18.2071 1.68275 18.3264 1.75099C18.3981 1.79249 18.4697 1.83404 18.5414 1.87566C18.5745 1.89469 18.6077 1.91372 18.6419 1.93333C18.955 2.11886 18.955 2.11886 19.0306 2.28293C19.0525 2.59082 18.9936 2.81983 18.8871 3.10639C18.8652 3.16734 18.8652 3.16734 18.8429 3.22952C18.7967 3.35814 18.7496 3.48643 18.7025 3.61473C18.6708 3.70234 18.6392 3.78998 18.6076 3.87763C18.5305 4.09148 18.4526 4.30503 18.3744 4.51845C18.4088 4.55342 18.4433 4.58839 18.4788 4.62441C18.8346 4.98546 19.1904 5.34651 19.5462 5.70756C19.6264 5.6773 19.6264 5.6773 19.7081 5.64643C19.9074 5.57135 20.107 5.49708 20.3067 5.42306C20.3929 5.39098 20.479 5.35868 20.565 5.32616C20.6891 5.2793 20.8134 5.23324 20.9378 5.18732C20.9759 5.17276 21.014 5.15819 21.0532 5.14319C21.2959 5.05471 21.4912 5.01953 21.7494 5.04166C22.0149 5.22784 22.1526 5.55332 22.3089 5.83242C22.3508 5.9059 22.3508 5.9059 22.3934 5.98087C22.4764 6.12715 22.5583 6.27399 22.64 6.42102C22.6672 6.46924 22.6943 6.51745 22.7223 6.56713C22.7478 6.61309 22.7732 6.65905 22.7995 6.70641C22.8336 6.76766 22.8336 6.76766 22.8685 6.83015C22.953 7.01289 22.9551 7.12568 22.9212 7.32475C22.801 7.49882 22.666 7.62737 22.5023 7.75877C22.4572 7.79544 22.4121 7.8321 22.3657 7.86988C22.3418 7.8893 22.3179 7.90872 22.2933 7.92873C22.1601 8.03843 22.0295 8.15135 21.8988 8.26414C21.6111 8.51221 21.6111 8.51221 21.5265 8.57061C21.4351 8.6325 21.4351 8.6325 21.3275 8.75167C21.319 8.91263 21.319 8.91263 21.3744 9.08463C21.3873 9.1337 21.3873 9.1337 21.4006 9.18377C21.4391 9.32691 21.4811 9.46891 21.5236 9.6109C21.6004 9.8785 21.6364 10.1386 21.6556 10.4164C21.7045 10.4246 21.7534 10.4327 21.8038 10.4411C21.987 10.4717 22.1702 10.5024 22.3534 10.5331C22.4324 10.5464 22.5113 10.5596 22.5903 10.5727C22.7045 10.5917 22.8186 10.6109 22.9328 10.6301C22.9675 10.6358 23.0022 10.6416 23.038 10.6475C23.1057 10.659 23.1733 10.6708 23.2408 10.6832C23.3118 10.6961 23.383 10.708 23.4543 10.7191C23.6329 10.7512 23.7524 10.7887 23.9066 10.8897C24.0445 11.1053 24.033 11.297 24.0305 11.5491C24.0307 11.5988 24.0309 11.6486 24.0312 11.6999C24.0313 11.8049 24.0309 11.91 24.0299 12.0151C24.0287 12.1758 24.0299 12.3363 24.0314 12.497C24.0313 12.5992 24.031 12.7014 24.0305 12.8036C24.031 12.8515 24.0314 12.8995 24.0319 12.9489C24.0283 13.1712 24.0251 13.2826 23.8919 13.4653C23.779 13.5457 23.7116 13.5898 23.5782 13.6138C23.5249 13.6241 23.5249 13.6241 23.4704 13.6346C23.4323 13.6409 23.3941 13.6472 23.3548 13.6538C23.3149 13.6611 23.2749 13.6685 23.2338 13.6761C23.0985 13.7006 22.9631 13.7234 22.8275 13.7459C22.7752 13.7547 22.723 13.7635 22.6691 13.7726C22.3316 13.8291 21.9938 13.8835 21.6556 13.9362C21.6539 13.9645 21.6522 13.9929 21.6504 14.022C21.6259 14.3392 21.5575 14.6258 21.4652 14.9291C21.439 15.0161 21.4131 15.1032 21.3874 15.1903C21.3759 15.2281 21.3644 15.266 21.3526 15.3049C21.3202 15.4234 21.3202 15.4234 21.3275 15.6009C21.4128 15.7037 21.4128 15.7037 21.5296 15.8001C21.5726 15.8376 21.6156 15.8752 21.6598 15.9138C21.876 16.0964 22.0934 16.2773 22.3119 16.4571C22.4157 16.543 22.5191 16.6292 22.6224 16.7157C22.6694 16.7549 22.7164 16.7941 22.7649 16.8344C22.909 16.9638 22.9183 16.9993 22.9385 17.196C22.9347 17.4541 22.8196 17.6398 22.6927 17.8573C22.6696 17.8983 22.6464 17.9392 22.6226 17.9815C22.5746 18.0661 22.5263 18.1505 22.4776 18.2348C22.4085 18.3547 22.3409 18.4754 22.2736 18.5964C22.2327 18.6691 22.1917 18.7418 22.1507 18.8145C22.132 18.8482 22.1132 18.8818 22.0939 18.9165C21.9111 19.2343 21.9111 19.2343 21.7494 19.311C21.4459 19.3331 21.2202 19.2734 20.9378 19.1653C20.8778 19.1431 20.8778 19.1431 20.8165 19.1205C20.6897 19.0736 20.5633 19.0258 20.4369 18.978C20.3505 18.9459 20.2642 18.9138 20.1778 18.8818C19.967 18.8035 19.7566 18.7245 19.5462 18.6451C19.5118 18.68 19.4773 18.715 19.4418 18.751C19.086 19.1121 18.7302 19.4731 18.3744 19.8342C18.3942 19.8884 18.4141 19.9426 18.4346 19.9984C18.5086 20.2006 18.5818 20.4032 18.6547 20.6058C18.6864 20.6933 18.7182 20.7806 18.7502 20.8679C18.7964 20.9938 18.8418 21.12 18.8871 21.2462C18.9014 21.2848 18.9158 21.3235 18.9306 21.3632C19.0178 21.6095 19.0524 21.8077 19.0306 22.0697C18.8471 22.3391 18.5264 22.4788 18.2513 22.6375C18.1789 22.6799 18.1789 22.6799 18.105 22.7232C17.9609 22.8074 17.8161 22.8905 17.6712 22.9734C17.6237 23.001 17.5762 23.0285 17.5273 23.0569C17.482 23.0828 17.4367 23.1086 17.39 23.1352C17.3296 23.1699 17.3296 23.1699 17.268 23.2053C17.0879 23.291 16.9768 23.2931 16.7806 23.2588C16.6091 23.1368 16.4824 22.9998 16.3529 22.8337C16.3167 22.7879 16.2805 22.7421 16.2432 22.6949C16.2241 22.6707 16.2049 22.6464 16.1852 22.6214C16.078 22.4873 15.9679 22.3559 15.8578 22.2243C15.8372 22.1996 15.8166 22.175 15.7954 22.1496C15.6401 21.9638 15.4839 21.7789 15.3275 21.594C15.3013 21.6022 15.2751 21.6103 15.2481 21.6187C15.1272 21.6562 15.0061 21.6935 14.8851 21.7308C14.8439 21.7436 14.8028 21.7564 14.7603 21.7696C14.0681 21.9822 14.0681 21.9822 13.7337 21.9746C13.7257 22.0242 13.7177 22.0738 13.7094 22.1249C13.6793 22.3109 13.649 22.4967 13.6187 22.6826C13.6057 22.7627 13.5927 22.8429 13.5797 22.923C13.561 23.0388 13.5421 23.1547 13.5232 23.2705C13.5175 23.3057 13.5118 23.341 13.506 23.3773C13.4947 23.446 13.483 23.5146 13.4709 23.5831C13.4581 23.6551 13.4464 23.7273 13.4355 23.7997C13.4038 23.981 13.3668 24.1022 13.2674 24.2586C13.0549 24.3985 12.866 24.3869 12.6175 24.3844C12.544 24.3847 12.544 24.3847 12.4689 24.385C12.3653 24.3852 12.2618 24.3848 12.1583 24.3838C11.9999 24.3825 11.8417 24.3838 11.6833 24.3853C11.5826 24.3851 11.4819 24.3848 11.3812 24.3844C11.3339 24.3848 11.2867 24.3853 11.238 24.3858C11.0189 24.3821 10.9091 24.3788 10.7291 24.2437C10.6498 24.1291 10.6064 24.0608 10.5827 23.9254C10.5759 23.8893 10.5692 23.8532 10.5622 23.816C10.556 23.7773 10.5497 23.7386 10.5433 23.6988C10.536 23.6582 10.5288 23.6177 10.5213 23.5759C10.4971 23.4387 10.4747 23.3012 10.4525 23.1637C10.4438 23.1106 10.4352 23.0576 10.4262 23.0029C10.3706 22.6604 10.3169 22.3177 10.265 21.9746C10.237 21.9728 10.2091 21.9711 10.1803 21.9694C9.82178 21.9411 9.50085 21.8464 9.15949 21.7365C9.09718 21.7173 9.09718 21.7173 9.03361 21.6977C8.99658 21.6858 8.95955 21.6739 8.9214 21.6616C8.78996 21.6376 8.7046 21.6482 8.57749 21.6892C8.49885 21.75 8.49885 21.75 8.43613 21.8315C8.39924 21.8755 8.39924 21.8755 8.36161 21.9205C8.33617 21.9521 8.31073 21.9836 8.28452 22.0162C8.25787 22.0483 8.23123 22.0805 8.20377 22.1136C8.12461 22.2095 8.04626 22.3059 7.96811 22.4026C7.92637 22.4539 7.88463 22.5051 7.84287 22.5563C7.7183 22.7101 7.59481 22.8647 7.47172 23.0197C7.33687 23.1874 7.27834 23.2494 7.06376 23.2828C6.74744 23.2782 6.48426 23.08 6.21909 22.9229C6.16423 22.8912 6.10933 22.8597 6.05439 22.8282C5.10809 22.2827 5.10809 22.2827 4.96811 22.0697C4.94156 21.7627 5.00554 21.5317 5.11167 21.2462C5.12624 21.2056 5.1408 21.165 5.15581 21.1231C5.20206 20.9945 5.24913 20.8662 5.29624 20.7379C5.32791 20.6503 5.35953 20.5626 5.39109 20.475C5.46822 20.2611 5.54609 20.0476 5.62436 19.8342C5.5899 19.7992 5.55544 19.7642 5.51994 19.7282C5.16412 19.3671 4.8083 19.0061 4.45249 18.6451C4.39907 18.6652 4.34566 18.6854 4.29062 18.7062C4.09132 18.7813 3.89172 18.8555 3.69203 18.9296C3.60584 18.9616 3.51974 18.9939 3.43371 19.0264C3.30964 19.0733 3.1853 19.1194 3.06089 19.1653C3.02283 19.1799 2.98478 19.1944 2.94558 19.2094C2.70326 19.2978 2.50693 19.3463 2.24936 19.311C2.06607 19.168 1.95969 18.9969 1.84653 18.7944C1.81662 18.7413 1.78671 18.6882 1.75589 18.6335C1.72506 18.5779 1.69424 18.5223 1.66343 18.4667C1.63291 18.4124 1.6024 18.358 1.57096 18.3021C1.51143 18.1959 1.45218 18.0896 1.39324 17.9831C1.3423 17.8913 1.29085 17.7998 1.23863 17.7088C1.21742 17.6714 1.19621 17.6341 1.17435 17.5957C1.15608 17.564 1.1378 17.5323 1.11897 17.4996C1.04234 17.3311 1.05039 17.2112 1.07749 17.0279C1.1973 16.8535 1.33275 16.7252 1.49643 16.5938C1.56414 16.5388 1.56414 16.5388 1.63321 16.4825C1.6571 16.4631 1.68099 16.4437 1.70561 16.4237C1.83776 16.315 1.96734 16.2032 2.09702 16.0914C2.12131 16.0706 2.14559 16.0497 2.17062 16.0282C2.35367 15.8705 2.53595 15.712 2.71811 15.5534C2.71008 15.5268 2.70206 15.5002 2.69378 15.4728C2.65681 15.3501 2.62008 15.2273 2.58335 15.1045C2.57072 15.0627 2.55809 15.0209 2.54508 14.9779C2.33561 14.2754 2.33561 14.2754 2.34311 13.9362C2.2942 13.928 2.24529 13.9199 2.1949 13.9115C2.01168 13.8809 1.82849 13.8502 1.64531 13.8195C1.56635 13.8062 1.48739 13.7931 1.40842 13.7799C1.29424 13.7609 1.1801 13.7417 1.06595 13.7225C1.03122 13.7168 0.996483 13.711 0.960696 13.7051C0.893028 13.6936 0.82543 13.6818 0.757913 13.6695C0.686928 13.6565 0.615756 13.6446 0.544466 13.6335C0.365783 13.6014 0.246296 13.5639 0.0921283 13.463C-0.0457213 13.2473 -0.0342588 13.0556 -0.0317655 12.8036C-0.0319897 12.7538 -0.0322139 12.704 -0.032445 12.6527C-0.0326042 12.5477 -0.0321734 12.4426 -0.0311933 12.3375C-0.0299386 12.1768 -0.0311818 12.0163 -0.032681 11.8556C-0.0325261 11.7534 -0.0322258 11.6512 -0.0317655 11.5491C-0.0322399 11.5011 -0.0327143 11.4531 -0.0332031 11.4037C-0.0295478 11.1814 -0.0263301 11.07 0.106823 10.8873C0.219763 10.8069 0.287137 10.7628 0.420505 10.7388C0.45608 10.7319 0.491655 10.7251 0.528309 10.718C0.566452 10.7117 0.604595 10.7054 0.643894 10.6988C0.68385 10.6915 0.723806 10.6841 0.764972 10.6765C0.900215 10.652 1.03566 10.6292 1.17124 10.6067C1.22351 10.5979 1.27577 10.5891 1.32962 10.58C1.66716 10.5236 2.00498 10.4691 2.34311 10.4164C2.34483 10.3881 2.34655 10.3598 2.34832 10.3306C2.37286 10.0134 2.44127 9.72678 2.53354 9.42352C2.55971 9.33651 2.58566 9.24944 2.61136 9.16229C2.62859 9.10555 2.62859 9.10555 2.64616 9.04767C2.67855 8.92923 2.67855 8.92923 2.67124 8.75167C2.58595 8.64888 2.58595 8.64888 2.46909 8.5525C2.40465 8.49621 2.40465 8.49621 2.3389 8.43879C2.1227 8.25622 1.90534 8.07527 1.68686 7.89552C1.58306 7.80965 1.47961 7.72338 1.37632 7.63689C1.32931 7.59771 1.28229 7.55853 1.23386 7.51816C1.09573 7.39417 1.08189 7.35393 1.05387 7.16812C1.05836 6.84715 1.25365 6.5801 1.40854 6.31103C1.43971 6.25536 1.47081 6.19966 1.50183 6.14391C2.0394 5.18369 2.0394 5.18369 2.24936 5.04166C2.5519 5.01472 2.77956 5.07964 3.06089 5.18732C3.10093 5.2021 3.14098 5.21689 3.18224 5.23211C3.309 5.27904 3.43543 5.32681 3.56186 5.37461C3.64821 5.40675 3.73457 5.43883 3.82096 5.47085C4.0317 5.54912 4.24217 5.62813 4.45249 5.70756C4.48695 5.67259 4.52141 5.63762 4.55692 5.6016C4.91273 5.24055 5.26855 4.8795 5.62436 4.51845C5.60448 4.46425 5.5846 4.41005 5.56412 4.35421C5.49013 4.15197 5.41694 3.94943 5.34398 3.74681C5.31237 3.65936 5.28054 3.57198 5.24849 3.48469C5.20231 3.3588 5.15692 3.23263 5.11167 3.10639C5.09731 3.06777 5.08296 3.02916 5.06817 2.98938C4.98112 2.7435 4.93332 2.54428 4.96811 2.28293C5.10903 2.09694 5.27763 1.98899 5.47715 1.87417C5.52948 1.84382 5.5818 1.81347 5.63572 1.7822C5.69052 1.75092 5.74533 1.71964 5.80015 1.68837C5.85368 1.65741 5.90722 1.62645 5.96238 1.59455C6.067 1.53415 6.17177 1.47403 6.27672 1.41422C6.36718 1.36253 6.45735 1.31032 6.54708 1.25733C6.58386 1.23581 6.62065 1.21428 6.65854 1.19211C6.68978 1.17356 6.72102 1.15502 6.75321 1.13592C6.91929 1.05815 7.03743 1.06632 7.21811 1.09382C7.38998 1.2154 7.51638 1.35284 7.64585 1.51893C7.70014 1.58763 7.70014 1.58763 7.75553 1.65772C7.78425 1.69408 7.78425 1.69408 7.81355 1.73118C7.9207 1.86527 8.03086 1.99676 8.14097 2.12834C8.16155 2.15299 8.18213 2.17763 8.20334 2.20302C8.35866 2.38877 8.51488 2.57373 8.67124 2.75857C8.69743 2.75042 8.72362 2.74228 8.7506 2.73388C8.87156 2.69636 8.99259 2.65909 9.11362 2.62182C9.1548 2.60901 9.19598 2.5962 9.23841 2.58299C9.93068 2.37044 9.93068 2.37044 10.265 2.37806C10.273 2.32843 10.281 2.2788 10.2893 2.22766C10.3194 2.04175 10.3497 1.85587 10.38 1.66999C10.393 1.58987 10.406 1.50975 10.419 1.42962C10.4377 1.31376 10.4566 1.19794 10.4756 1.08212C10.4812 1.04687 10.4869 1.01162 10.4927 0.975311C10.504 0.906648 10.5157 0.838056 10.5279 0.769546C10.5406 0.697518 10.5523 0.625299 10.5633 0.552961C10.5949 0.37165 10.6319 0.250406 10.7314 0.0939713C10.9439 -0.0459054 11.1328 -0.0342744 11.3812 -0.0317443ZM11.3431 0.713306C11.2729 0.947915 11.2223 1.18036 11.1836 1.4225C11.1718 1.49382 11.1599 1.56513 11.148 1.63644C11.1297 1.74735 11.1116 1.85828 11.0937 1.96927C11.0763 2.07742 11.0582 2.18547 11.0401 2.29352C11.0349 2.32638 11.0298 2.35923 11.0245 2.39308C10.9894 2.59985 10.9376 2.77057 10.8275 2.94883C10.6999 3.03842 10.5683 3.06523 10.4172 3.09524C10.3736 3.10421 10.3301 3.11319 10.2853 3.12243C10.239 3.13185 10.1926 3.14127 10.1449 3.15098C9.7416 3.23515 9.35294 3.33791 8.96621 3.48193C8.72113 3.56846 8.55051 3.58424 8.29624 3.5196C8.18217 3.4293 8.18217 3.4293 8.08823 3.31151C8.05294 3.26834 8.01766 3.22518 7.9813 3.1807C7.94601 3.13558 7.91072 3.09045 7.87436 3.04396C7.84004 3.00177 7.80572 2.95959 7.77036 2.91613C7.70074 2.83056 7.63153 2.74466 7.56272 2.65843C7.44026 2.50547 7.31623 2.35393 7.19175 2.20266C7.17103 2.17747 7.1503 2.15228 7.12895 2.12632C7.08057 2.06753 7.03216 2.00875 6.98374 1.94998C6.69833 2.02599 6.465 2.18119 6.21616 2.33644C6.17272 2.36323 6.12927 2.39003 6.08451 2.41763C5.97785 2.48346 5.87135 2.54955 5.76499 2.61588C5.8358 2.81892 5.90666 3.02194 5.97756 3.22495C6.00162 3.29386 6.02567 3.36277 6.04971 3.43169C6.08447 3.53136 6.11927 3.63102 6.15409 3.73067C6.16529 3.76273 6.17648 3.7948 6.18802 3.82783C6.24548 3.99189 6.30427 4.15525 6.36576 4.31779C6.43228 4.50135 6.45533 4.61012 6.42124 4.80384C6.26394 5.04762 6.04316 5.23291 5.82615 5.42013C5.49077 5.72179 5.17527 6.05133 4.88865 6.40077C4.79159 6.50839 4.7352 6.51603 4.59017 6.52823C4.36703 6.51363 4.19111 6.45146 3.98392 6.37049C3.94485 6.35571 3.90578 6.34093 3.86552 6.3257C3.74165 6.27871 3.61807 6.23097 3.49448 6.1832C3.41018 6.15107 3.32586 6.11899 3.24152 6.08696C3.03559 6.00863 2.82991 5.92962 2.62436 5.85025C2.43518 6.03598 2.31931 6.25954 2.18784 6.4894C2.16086 6.5348 2.13388 6.5802 2.10608 6.62698C2.08104 6.67079 2.05599 6.7146 2.03019 6.75973C2.00702 6.79968 1.98386 6.83962 1.96 6.88077C1.90916 6.99035 1.90916 6.99035 1.95512 7.09567C2.0351 7.21107 2.12804 7.28544 2.23764 7.37231C2.45339 7.54652 2.66462 7.72464 2.87339 7.90741C2.9269 7.95424 2.98043 8.00106 3.03397 8.04787C3.05927 8.07004 3.08456 8.0922 3.11062 8.11504C3.18757 8.18152 3.26577 8.24623 3.34415 8.31096C3.46811 8.41873 3.46811 8.41873 3.51499 8.51385C3.51117 8.80897 3.4341 9.07609 3.33921 9.35217C3.20506 9.75683 3.11334 10.164 3.03804 10.5839C3.02951 10.6282 3.02097 10.6725 3.01218 10.7182C3.00513 10.7575 2.99809 10.7968 2.99083 10.8374C2.94121 10.9697 2.88429 11.0112 2.76499 11.0823C2.67475 11.113 2.67475 11.113 2.5795 11.1312C2.52519 11.1419 2.52519 11.1419 2.46979 11.1529C2.43089 11.16 2.39198 11.1671 2.3519 11.1745C2.29124 11.1862 2.29124 11.1862 2.22935 11.1982C1.85028 11.2708 1.46992 11.3369 1.08933 11.4007C1.02374 11.4119 1.02374 11.4119 0.956821 11.4233C0.917866 11.4298 0.878911 11.4363 0.838775 11.443C0.749356 11.4543 0.749356 11.4543 0.702488 11.5104C0.698378 11.609 0.697474 11.7077 0.69791 11.8064C0.698061 11.8663 0.698212 11.9262 0.698368 11.988C0.69876 12.0518 0.699156 12.1155 0.699558 12.1793C0.699793 12.2432 0.700007 12.3072 0.700199 12.3711C0.700754 12.5281 0.701526 12.6852 0.702488 12.8422C0.933697 12.9134 1.16277 12.9648 1.4014 13.004C1.47169 13.0161 1.54197 13.0281 1.61225 13.0402C1.72155 13.0587 1.83087 13.0771 1.94025 13.0953C2.04684 13.113 2.15332 13.1313 2.2598 13.1497C2.29218 13.1549 2.32456 13.1601 2.35792 13.1655C2.56169 13.2011 2.72994 13.2537 2.90561 13.3654C2.99431 13.4954 3.02043 13.6295 3.0499 13.7835C3.05874 13.8278 3.06758 13.8722 3.07669 13.918C3.08598 13.9652 3.09526 14.0124 3.10483 14.061C3.18609 14.4612 3.28527 14.8449 3.42687 15.2276C3.5029 15.439 3.53458 15.614 3.51499 15.8388C3.34601 16.1107 3.08485 16.2921 2.83965 16.4909C2.67958 16.6224 2.5235 16.7588 2.36673 16.8944C2.22023 17.0208 2.07204 17.1446 1.92124 17.2657C1.99615 17.5553 2.1491 17.7921 2.3021 18.0446C2.3285 18.0886 2.35491 18.1327 2.38211 18.1781C2.44699 18.2864 2.51212 18.3944 2.57749 18.5024C2.77759 18.4305 2.97767 18.3586 3.17773 18.2867C3.24564 18.2622 3.31356 18.2378 3.38148 18.2135C3.47971 18.1782 3.57792 18.1429 3.67612 18.1075C3.70772 18.0962 3.73932 18.0848 3.77188 18.0731C3.93355 18.0148 4.09455 17.9551 4.25473 17.8928C4.43563 17.8253 4.54283 17.8019 4.73374 17.8365C4.97399 17.9961 5.1566 18.2201 5.3411 18.4403C5.63839 18.7806 5.96316 19.1008 6.30753 19.3916C6.41359 19.4901 6.42112 19.5473 6.43314 19.6945C6.41875 19.9209 6.35749 20.0994 6.27768 20.3096C6.26312 20.3493 6.24855 20.3889 6.23354 20.4298C6.18723 20.5555 6.14019 20.6809 6.09311 20.8063C6.06145 20.8918 6.02983 20.9774 5.99827 21.0629C5.92107 21.2719 5.84321 21.4806 5.76499 21.6892C5.94803 21.8811 6.16834 21.9987 6.39487 22.1321C6.46199 22.1732 6.46199 22.1732 6.53046 22.2151C6.59522 22.2532 6.59522 22.2532 6.66129 22.2921C6.70065 22.3156 6.74002 22.3391 6.78057 22.3633C6.88856 22.4149 6.88856 22.4149 6.99236 22.3682C7.10609 22.2871 7.17938 22.1928 7.26499 22.0816C7.43668 21.8627 7.61221 21.6483 7.79233 21.4365C7.83849 21.3822 7.88463 21.3279 7.93076 21.2735C7.95261 21.2479 7.97445 21.2222 7.99695 21.1958C8.06247 21.1177 8.12625 21.0383 8.19004 20.9588C8.3152 20.8106 8.343 20.7896 8.53208 20.773C8.7624 20.7884 8.94824 20.8566 9.16343 20.9371C9.58147 21.0877 9.99825 21.1923 10.4348 21.2718C10.478 21.2802 10.5212 21.2886 10.5656 21.2973C10.6038 21.3042 10.642 21.311 10.6813 21.3181C10.8109 21.3679 10.8515 21.4264 10.9212 21.5465C10.9514 21.638 10.9514 21.638 10.9694 21.7347C10.98 21.7898 10.98 21.7898 10.9908 21.846C10.9978 21.8855 11.0048 21.925 11.0121 21.9656C11.0236 22.0272 11.0236 22.0272 11.0355 22.09C11.107 22.4746 11.1721 22.8606 11.235 23.2468C11.2423 23.2911 11.2497 23.3355 11.2572 23.3812C11.2637 23.4208 11.2701 23.4603 11.2767 23.501C11.2878 23.5917 11.2878 23.5917 11.3431 23.6393C11.4403 23.6435 11.5376 23.6444 11.6348 23.6439C11.7234 23.6437 11.7234 23.6437 11.8138 23.6435C11.8766 23.6431 11.9395 23.6427 12.0023 23.6423C12.0653 23.642 12.1283 23.6418 12.1914 23.6416C12.3461 23.6411 12.5009 23.6403 12.6556 23.6393C12.7258 23.4047 12.7765 23.1722 12.8151 22.9301C12.827 22.8588 12.8388 22.7875 12.8507 22.7162C12.869 22.6053 12.8871 22.4943 12.905 22.3833C12.9225 22.2752 12.9405 22.1671 12.9587 22.0591C12.9638 22.0262 12.9689 21.9934 12.9742 21.9595C13.0093 21.7529 13.066 21.5844 13.1712 21.4038C13.3778 21.2777 13.649 21.2519 13.8832 21.2016C14.2668 21.1172 14.6361 21.0143 15.0041 20.8749C15.2121 20.7984 15.3839 20.7652 15.6087 20.7854C15.8768 20.9569 16.0555 21.2219 16.2514 21.4707C16.381 21.6331 16.5155 21.7915 16.6491 21.9506C16.7737 22.0992 16.8956 22.2496 17.015 22.4026C17.3004 22.3266 17.5337 22.1714 17.7826 22.0162C17.826 21.9894 17.8695 21.9626 17.9142 21.935C18.0209 21.8691 18.1274 21.8031 18.2337 21.7367C18.1629 21.5337 18.0921 21.3307 18.0212 21.1277C17.9971 21.0588 17.9731 20.9898 17.949 20.9209C17.9143 20.8212 17.8795 20.7216 17.8446 20.6219C17.8334 20.5899 17.8223 20.5578 17.8107 20.5248C17.7533 20.3607 17.6945 20.1974 17.633 20.0348C17.5665 19.8513 17.5434 19.7425 17.5775 19.5488C17.7348 19.305 17.9556 19.1197 18.1726 18.9325C18.508 18.6308 18.8235 18.3013 19.1101 17.9518C19.2079 17.8434 19.2639 17.8365 19.4103 17.825C19.624 17.8384 19.7894 17.8943 19.9877 17.9717C20.0425 17.9923 20.0425 17.9923 20.0985 18.0133C20.2144 18.0569 20.33 18.1012 20.4457 18.1456C20.5618 18.19 20.678 18.2341 20.7944 18.2779C20.8665 18.3051 20.9386 18.3327 21.0105 18.3605C21.1746 18.4226 21.2907 18.4548 21.4681 18.4548C21.5729 18.2771 21.6759 18.0985 21.7787 17.9197C21.8085 17.8691 21.8384 17.8185 21.8691 17.7664C21.8969 17.7177 21.9247 17.6689 21.9533 17.6187C21.9794 17.5739 22.0054 17.529 22.0322 17.4828C22.0904 17.3643 22.0904 17.3643 22.0446 17.2553C21.9633 17.142 21.87 17.0666 21.7611 16.9803C21.5453 16.8061 21.3341 16.628 21.1253 16.4452C21.0718 16.3984 21.0183 16.3515 20.9648 16.3047C20.9395 16.2826 20.9142 16.2604 20.8881 16.2376C20.8112 16.1711 20.733 16.1064 20.6546 16.0416C20.5085 15.9147 20.4878 15.8864 20.4715 15.6946C20.4867 15.4609 20.5538 15.2723 20.6332 15.0539C20.7816 14.6298 20.8847 14.2069 20.9631 13.7639C20.9714 13.72 20.9797 13.6762 20.9882 13.6311C20.9949 13.5924 21.0017 13.5537 21.0086 13.5138C21.0578 13.3819 21.1148 13.3408 21.2337 13.2703C21.329 13.2396 21.329 13.2396 21.4311 13.2214C21.4697 13.2143 21.5083 13.2071 21.548 13.1997C21.5893 13.1926 21.6306 13.1855 21.6732 13.1781C21.716 13.1703 21.7587 13.1625 21.8028 13.1544C21.9412 13.1291 22.0796 13.1045 22.2181 13.08C22.3633 13.0539 22.5084 13.0277 22.6535 13.0012C22.7451 12.9846 22.8368 12.9681 22.9285 12.9519C22.9698 12.9445 23.0112 12.937 23.0538 12.9293C23.0905 12.9228 23.1272 12.9163 23.165 12.9096C23.2499 12.8976 23.2499 12.8976 23.2962 12.8422C23.3004 12.7436 23.3013 12.6449 23.3008 12.5462C23.3006 12.4563 23.3006 12.4563 23.3004 12.3646C23.3 12.3009 23.2996 12.2371 23.2992 12.1733C23.2989 12.1094 23.2987 12.0454 23.2985 11.9815C23.298 11.8245 23.2972 11.6674 23.2962 11.5104C23.0798 11.4302 22.8654 11.3844 22.6385 11.3486C22.566 11.3365 22.4934 11.3245 22.4208 11.3124C22.3076 11.2939 22.1944 11.2755 22.0811 11.2574C21.9709 11.2396 21.8609 11.2213 21.7508 11.2029C21.7173 11.1977 21.6837 11.1925 21.6492 11.1871C21.442 11.1521 21.2713 11.1012 21.0931 10.9872C21.0044 10.8572 20.9783 10.7231 20.9488 10.5692C20.94 10.5248 20.9312 10.4804 20.922 10.4346C20.9081 10.3638 20.9081 10.3638 20.8939 10.2916C20.8126 9.8914 20.7135 9.50768 20.5719 9.12501C20.4958 8.9136 20.4641 8.73866 20.4837 8.51385C20.6369 8.26736 20.8617 8.10353 21.0843 7.92302C21.2827 7.76172 21.4742 7.59225 21.6663 7.42338C21.8002 7.30615 21.934 7.19208 22.0775 7.08692C22.0029 6.80867 21.8639 6.57774 21.7201 6.33184C21.6959 6.29002 21.6717 6.24821 21.6468 6.20513C21.5875 6.10255 21.5279 6.00012 21.4681 5.89782C21.224 5.92486 21.0103 5.9847 20.7811 6.07488C20.7132 6.10075 20.6452 6.12661 20.5773 6.15245C20.4717 6.19308 20.3662 6.23388 20.2607 6.27491C20.158 6.31473 20.055 6.35388 19.952 6.39297C19.9209 6.4053 19.8898 6.41764 19.8577 6.43035C19.6535 6.50739 19.4822 6.5329 19.265 6.51615C19.1625 6.4567 19.1625 6.4567 19.0775 6.37346C19.0458 6.34274 19.0142 6.31202 18.9815 6.28037C18.8692 6.16116 18.7629 6.03794 18.6576 5.91231C18.3603 5.572 18.0356 5.25186 17.6912 4.96102C17.5851 4.86254 17.5776 4.80532 17.5656 4.65816C17.58 4.43174 17.6412 4.25323 17.721 4.04299C17.7429 3.98352 17.7429 3.98352 17.7652 3.92285C17.8115 3.79716 17.8585 3.67176 17.9056 3.54636C17.9373 3.46081 17.9689 3.37525 18.0005 3.28968C18.0777 3.08071 18.1555 2.87201 18.2337 2.66344C18.0507 2.47148 17.8304 2.3539 17.6039 2.2205C17.5591 2.19312 17.5144 2.16575 17.4683 2.13754C17.4251 2.11213 17.3819 2.08671 17.3374 2.06053C17.2981 2.03703 17.2587 2.01352 17.2182 1.98931C17.1102 1.93772 17.1102 1.93772 17.0064 1.98436C16.8926 2.06551 16.8193 2.15982 16.7337 2.27104C16.5621 2.48996 16.3865 2.70429 16.2064 2.91613C16.1602 2.97043 16.1141 3.02475 16.068 3.07907C16.0458 3.10474 16.0236 3.13041 16.0007 3.15685C15.9358 3.23309 15.9358 3.23309 15.8811 3.31585C15.7769 3.46395 15.7088 3.51759 15.5364 3.57218C15.2616 3.58699 15.0068 3.48046 14.7503 3.39177C14.3318 3.25265 13.9205 3.13281 13.4853 3.06148C13.346 3.0364 13.2403 3.01499 13.1299 2.92226C13.0517 2.74903 13.0199 2.5738 12.9867 2.38698C12.9789 2.34594 12.9712 2.3049 12.9633 2.26262C12.8918 1.87797 12.8266 1.49203 12.7638 1.10584C12.7564 1.06147 12.7491 1.0171 12.7415 0.97138C12.7351 0.931852 12.7287 0.892324 12.722 0.851598C12.7109 0.760863 12.7109 0.760863 12.6556 0.713306C12.5585 0.709136 12.4612 0.708219 12.3639 0.708661C12.2753 0.708891 12.2753 0.708891 12.1849 0.709126C12.1221 0.709523 12.0593 0.709926 11.9964 0.710333C11.9334 0.710572 11.8704 0.710789 11.8074 0.710984C11.6526 0.711546 11.4979 0.712331 11.3431 0.713306Z" fill="black"/>
<path d="M19.8281 7.22988C20.017 7.42464 20.1173 7.57708 20.1298 7.85119C20.1327 7.89392 20.1355 7.93666 20.1384 7.98069C20.0644 8.36947 19.7429 8.67024 19.4795 8.94517C19.4199 9.00809 19.3604 9.07108 19.3009 9.13412C19.2717 9.1651 19.2425 9.19607 19.2124 9.22798C19.0962 9.35384 18.9848 9.48361 18.8735 9.61394C18.7643 9.74106 18.6518 9.86474 18.539 9.98861C18.395 10.1471 18.2524 10.3064 18.1142 10.4702C17.7404 10.9018 17.3809 11.2198 16.8779 11.4899C16.8253 11.5191 16.7727 11.5483 16.7185 11.5784C16.3419 11.7861 16.3419 11.7861 16.1718 11.8436C16.1735 11.8897 16.1751 11.9358 16.1768 11.9833C16.2055 13.1505 15.8587 14.2081 15.0531 15.0685C15.0201 15.103 14.9871 15.1376 14.9531 15.1731C14.9278 15.2022 14.9026 15.2314 14.8765 15.2614C14.5847 15.5866 14.0545 16.0045 13.6171 16.0441C13.4427 16.0283 13.3775 16.022 13.2656 15.8866C13.2187 15.7261 13.2187 15.7261 13.2187 15.5536C13.3426 15.3612 13.471 15.2666 13.6699 15.1612C13.964 14.9936 14.1995 14.7963 14.4375 14.5548C14.4673 14.5245 14.4972 14.4942 14.5279 14.463C15.0647 13.8795 15.3167 13.1509 15.375 12.3668C14.7002 12.7471 14.0295 13.1332 13.3635 13.5292C13.068 13.7049 12.7714 13.8788 12.4746 14.0524C12.4247 14.0816 12.3749 14.1108 12.3235 14.1409C12.0835 14.2813 11.8434 14.4215 11.6027 14.5607C11.4898 14.6261 11.377 14.6916 11.2641 14.7572C11.1843 14.8035 11.1043 14.8496 11.0243 14.8956C10.9761 14.9237 10.9278 14.9517 10.8781 14.9806C10.8355 15.0052 10.7929 15.0298 10.7491 15.0552C10.6512 15.1187 10.5775 15.1812 10.5 15.2683C10.9687 15.4664 11.3935 15.5893 11.9004 15.6161C12.08 15.6312 12.1357 15.6453 12.29 15.7528C12.3923 15.9139 12.4135 15.9842 12.375 16.172C12.2929 16.3087 12.2929 16.3087 12.1406 16.4098C11.3653 16.5432 10.4606 16.2044 9.82192 15.7887C9.65755 15.7267 9.58311 15.775 9.42184 15.839C9.33574 15.8839 9.25091 15.9314 9.16732 15.981C9.11899 16.0095 9.07066 16.0379 9.02087 16.0673C8.94381 16.1132 8.94381 16.1132 8.8652 16.1601C8.81115 16.192 8.75709 16.224 8.70302 16.2559C8.53618 16.3544 8.36962 16.4534 8.20309 16.5525C6.27934 17.6959 6.27934 17.6959 5.78756 17.5681C5.25995 17.3794 5.05967 16.9286 4.79586 16.4544C4.76449 16.3987 4.73309 16.3431 4.70165 16.2874C4.2134 15.4188 4.2134 15.4188 4.2828 14.9656C4.38698 14.5878 4.63396 14.3176 4.96267 14.1204C5.04926 14.0722 5.13626 14.0248 5.2236 13.9781C5.31989 13.9247 5.41614 13.8713 5.51235 13.8177C5.56179 13.7904 5.61122 13.7632 5.66216 13.7351C5.90818 13.5976 6.15031 13.4534 6.39254 13.3092C6.43916 13.2816 6.48578 13.2539 6.53382 13.2254C6.75041 13.097 6.96658 12.9678 7.18209 12.8375C7.21923 12.8151 7.25637 12.7927 7.29463 12.7696C7.36321 12.7282 7.43168 12.6866 7.50003 12.6447C7.72393 12.5095 7.72393 12.5095 7.82809 12.5095C7.82646 12.4634 7.82482 12.4173 7.82314 12.3698C7.79192 11.093 8.23503 10.0319 9.09957 9.1057C9.90144 8.30894 10.9731 7.93093 12.0847 7.93151C12.8404 7.94227 13.5394 8.14882 14.178 8.56447C14.2959 8.62025 14.2959 8.62025 14.4223 8.58806C14.6897 8.46116 14.9354 8.29547 15.1823 8.13184C15.9051 7.67812 16.8159 7.5704 17.6351 7.39616C17.8166 7.35745 17.998 7.31798 18.1793 7.27847C18.2958 7.25349 18.4124 7.22856 18.529 7.20368C18.5826 7.19194 18.6362 7.1802 18.6914 7.16811C19.4948 6.99932 19.4948 6.99932 19.8281 7.22988ZM18.9052 7.91956C18.8499 7.93281 18.7947 7.94605 18.7377 7.95969C18.6953 7.97 18.653 7.9803 18.6093 7.99091C18.6296 8.0429 18.6499 8.0949 18.6709 8.14847C18.6823 8.17771 18.6937 8.20696 18.7055 8.23709C18.7546 8.33287 18.8123 8.39423 18.8906 8.46655C19.1509 8.17695 19.1509 8.17695 19.3593 7.84822C19.198 7.84822 19.0621 7.88173 18.9052 7.91956ZM17.3697 8.24192C17.3115 8.25458 17.2533 8.26724 17.1934 8.28029C17.1633 8.28695 17.1331 8.29362 17.1021 8.30048C17.0098 8.32088 16.9174 8.34092 16.825 8.36093C16.5377 8.41419 16.5377 8.41419 16.2656 8.51412C16.3293 8.68531 16.4047 8.84193 16.4936 9.00109C16.5197 9.04797 16.5458 9.09484 16.5727 9.14314C16.6 9.1916 16.6272 9.24007 16.6552 9.29001C16.6953 9.36188 16.6953 9.36188 16.7361 9.43521C16.8859 9.70306 17.0401 9.96666 17.2031 10.2264C17.3449 10.1625 17.4377 10.0933 17.5426 9.97765C17.5703 9.94727 17.598 9.91689 17.6266 9.88559C17.6551 9.85386 17.6835 9.82213 17.7129 9.78943C17.7409 9.75863 17.769 9.72781 17.798 9.69607C17.9794 9.49625 18.1549 9.29205 18.3281 9.08489C18.2651 8.91301 18.1887 8.76215 18.0937 8.60627C18.0091 8.46695 17.9292 8.32874 17.8593 8.18117C17.6827 8.18117 17.5416 8.20441 17.3697 8.24192ZM9.28121 10.0362C8.8634 10.6161 8.56398 11.3052 8.57809 12.0339C8.9983 11.8298 9.40073 11.606 9.80068 11.3641C10.0703 11.2011 10.3423 11.0423 10.6142 10.8834C10.666 10.8531 10.7178 10.8228 10.7712 10.7916C10.9307 10.6983 11.0904 10.6051 11.25 10.5118C12.0326 10.0544 12.8141 9.5951 13.5937 9.13245C12.2574 8.08292 10.2506 8.8973 9.28121 10.0362ZM15.5156 8.84707C15.4045 8.8976 15.4045 8.8976 15.2794 8.97508C15.2305 9.00399 15.1816 9.03289 15.1313 9.06267C15.0783 9.09453 15.0253 9.12639 14.9707 9.15921C14.9153 9.19213 14.8598 9.22502 14.8044 9.25788C14.6621 9.34229 14.52 9.42711 14.3781 9.51202C14.1658 9.6388 13.9529 9.76455 13.7402 9.89051C13.6947 9.91749 13.6492 9.94447 13.6024 9.97227C13.2136 10.2026 12.8229 10.4293 12.4318 10.6554C12.004 10.9028 11.578 11.153 11.1531 11.4052C10.6598 11.698 10.1646 11.9874 9.66944 12.2769C9.36472 12.455 9.06014 12.6334 8.75554 12.8118C8.52012 12.9496 8.28468 13.0874 8.04913 13.225C7.96635 13.2734 7.88357 13.3218 7.8008 13.3701C7.69743 13.4306 7.59404 13.4909 7.49062 13.5513C7.35293 13.6318 7.21546 13.7127 7.07809 13.7938C7.01002 13.8337 7.01002 13.8337 6.94057 13.8744C6.89798 13.8997 6.85538 13.925 6.81149 13.9511C6.75466 13.9847 6.75466 13.9847 6.69668 14.019C6.60275 14.0731 6.60275 14.0731 6.56246 14.1743C6.63052 14.3036 6.63052 14.3036 6.72359 14.4418C6.75447 14.4895 6.78535 14.5372 6.81716 14.5864C6.85351 14.6414 6.85351 14.6414 6.89059 14.6975C7.06104 14.6321 7.21734 14.5546 7.37618 14.4641C7.42419 14.4368 7.47219 14.4096 7.52165 14.3814C7.5725 14.3523 7.62335 14.3232 7.67574 14.2932C7.72856 14.263 7.78137 14.2329 7.83579 14.2019C8.15411 14.0197 8.47074 13.835 8.78505 13.6458C9.08093 13.4678 9.37868 13.2932 9.67672 13.1189C9.72862 13.0886 9.78052 13.0582 9.834 13.027C9.94043 12.9648 10.0469 12.9026 10.1533 12.8404C10.4096 12.6906 10.6657 12.5406 10.9218 12.3906C11.2304 12.21 11.5389 12.0294 11.8474 11.8488C11.8995 11.8184 11.9515 11.7879 12.0051 11.7565C12.108 11.6963 12.211 11.6362 12.314 11.5762C12.5484 11.4395 12.7818 11.3016 13.0129 11.1593C13.0534 11.1347 13.0938 11.1101 13.1355 11.0847C13.2097 11.0394 13.2836 10.9935 13.3571 10.9469C13.568 10.8189 13.7159 10.764 13.9687 10.7972C14.1093 10.8923 14.1093 10.8923 14.1504 11.0261C14.1575 11.2103 14.1215 11.2681 14.0156 11.4155C13.9071 11.4967 13.9071 11.4967 13.7781 11.5698C13.7298 11.5975 13.6816 11.6252 13.6319 11.6538C13.5797 11.6831 13.5274 11.7124 13.4736 11.7425C13.4187 11.7739 13.3638 11.8053 13.3089 11.8368C13.1949 11.9022 13.0808 11.9673 12.9666 12.0322C12.7054 12.1808 12.4466 12.3335 12.1875 12.4857C12.0859 12.5452 11.9843 12.6047 11.8828 12.6641C11.8325 12.6935 11.7822 12.723 11.7304 12.7533C11.1718 13.0803 10.6132 13.4073 10.0546 13.7343C10.0043 13.7638 9.95401 13.7932 9.90217 13.8236C9.80106 13.8828 9.69996 13.9419 9.59885 14.0011C9.3651 14.1379 9.13136 14.2748 8.89765 14.4117C7.79678 15.0566 7.79678 15.0566 7.26559 15.3634C7.31031 15.4487 7.35527 15.5339 7.40035 15.619C7.42537 15.6665 7.45038 15.714 7.47616 15.7628C7.54131 15.8891 7.54131 15.8891 7.64059 15.9817C8.31536 15.6015 8.98608 15.2154 9.652 14.8194C9.94757 14.6436 10.2442 14.4697 10.541 14.2962C10.5916 14.2665 10.6422 14.2369 10.6944 14.2064C10.7971 14.1464 10.8997 14.0864 11.0024 14.0264C11.2568 13.8776 11.5112 13.7287 11.7656 13.5797C11.8671 13.5203 11.9687 13.4608 12.0703 13.4014C12.1205 13.3719 12.1708 13.3425 12.2226 13.3122C13.8984 12.3312 13.8984 12.3312 14.0509 12.2419C14.1519 12.1827 14.253 12.1236 14.354 12.0644C14.5886 11.9271 14.8231 11.7898 15.0578 11.6526C15.1398 11.6046 15.2219 11.5565 15.3039 11.5085C15.4061 11.4488 15.5083 11.389 15.6104 11.3292C15.9388 11.1371 16.2665 10.9437 16.5937 10.7496C16.5403 10.5832 16.4893 10.4303 16.4004 10.2799C16.3713 10.2309 16.3423 10.1818 16.3125 10.1313C16.103 10.1937 15.9389 10.2791 15.7558 10.3989C15.5156 10.5439 15.3705 10.6155 15.0937 10.5594C14.997 10.4851 14.997 10.4851 14.9531 10.3691C14.9414 10.2086 14.9414 10.2086 15 10.0362C15.1276 9.91832 15.2721 9.8367 15.4218 9.75079C15.5088 9.69737 15.5957 9.64387 15.6826 9.59026C15.7519 9.54853 15.8212 9.50687 15.8906 9.4654C15.846 9.3711 15.801 9.277 15.7558 9.18299C15.7308 9.13057 15.7058 9.07814 15.68 9.02413C15.6226 8.89016 15.6226 8.89016 15.5156 8.84707ZM5.51363 14.7064C5.46542 14.734 5.46542 14.734 5.41622 14.7622C5.15747 14.9149 5.15747 14.9149 5.01559 15.1731C5.10157 15.5359 5.31886 15.8498 5.50777 16.166C5.53984 16.2208 5.57188 16.2755 5.60391 16.3303C5.63454 16.3819 5.66518 16.4335 5.69674 16.4867C5.73848 16.5571 5.73848 16.5571 5.78106 16.6288C5.85647 16.7534 5.85647 16.7534 5.99996 16.8379C6.24641 16.8268 6.42142 16.7231 6.62692 16.5971C6.67196 16.5702 6.67196 16.5702 6.71792 16.5427C6.79133 16.4988 6.86443 16.4544 6.93746 16.4098C6.90618 16.2491 6.84543 16.1255 6.76589 15.9834C6.74044 15.9377 6.71498 15.8921 6.68876 15.8451C6.66158 15.797 6.63441 15.7489 6.60641 15.6993C6.57893 15.6504 6.55145 15.6014 6.52314 15.551C6.22824 15.0207 6.22824 15.0207 5.90621 14.5072C5.77867 14.5072 5.6249 14.6402 5.51363 14.7064Z" fill="black"/>
<path d="M19.0905 11.1822C19.3755 11.3314 19.5224 11.5465 19.641 11.8433C19.6725 12.0298 19.6722 12.2104 19.6673 12.3992C19.6662 12.4769 19.6662 12.4769 19.6651 12.5561C19.6439 13.3387 19.4876 14.1066 19.2191 14.8398C19.2063 14.8749 19.1935 14.91 19.1803 14.9462C18.6906 16.2609 17.8442 17.4627 16.7347 18.312C16.6955 18.343 16.6564 18.374 16.616 18.4059C15.3428 19.3846 13.8022 19.9205 12.2083 19.956C12.1621 19.9578 12.1158 19.9597 12.0682 19.9616C11.7207 19.9629 11.4737 19.8677 11.2035 19.6438C10.9789 19.3598 10.9017 19.1021 10.9065 18.7394C10.9421 18.4178 11.0874 18.1606 11.3324 17.9553C11.6422 17.7202 12.078 17.7259 12.4486 17.6997C13.7093 17.5938 14.8203 17.0857 15.7503 16.2192C15.7884 16.1845 15.8265 16.1498 15.8657 16.114C16.85 15.1713 17.3913 13.8103 17.4583 12.4557C17.4807 12.0189 17.5275 11.6284 17.8597 11.3201C18.2553 11.0508 18.6486 10.9859 19.0905 11.1822ZM18.2816 12.0335C18.2384 12.165 18.2255 12.2594 18.2179 12.396C18.0993 14.2264 17.3951 15.8054 16.0316 17.0278C15.8232 17.2022 15.603 17.3563 15.3753 17.5034C15.3234 17.5371 15.2714 17.5708 15.2179 17.6055C14.3127 18.1588 13.2958 18.449 12.2413 18.4752C12.0307 18.4844 11.8841 18.5077 11.7191 18.645C11.6606 18.807 11.6606 18.807 11.6722 18.9779C11.7374 19.0908 11.7374 19.0908 11.8597 19.1682C12.0024 19.1864 12.1247 19.193 12.2669 19.189C12.3065 19.1883 12.3462 19.1876 12.387 19.1869C13.9242 19.1411 15.4747 18.4762 16.5897 17.407C16.6753 17.3252 16.763 17.2508 16.8548 17.1764C17.0805 16.9807 17.2573 16.7424 17.4378 16.5046C17.4757 16.4551 17.5135 16.4055 17.5525 16.3545C18.3758 15.2478 18.8896 13.8696 18.9056 12.4765C18.907 12.4365 18.9083 12.3965 18.9097 12.3553C18.9135 12.1173 18.9135 12.1173 18.8036 11.9122C18.7067 11.836 18.7067 11.836 18.5863 11.8195C18.4326 11.8507 18.3784 11.9108 18.2816 12.0335Z" fill="black"/>
<path d="M11.7513 4.39983C11.8257 4.39676 11.8257 4.39676 11.9016 4.39364C12.263 4.39056 12.5164 4.47339 12.7972 4.70899C13.0253 4.99407 13.0995 5.26126 13.0942 5.62572C13.0561 5.93967 12.9078 6.19735 12.6683 6.39753C12.3618 6.60198 12.0579 6.61242 11.6986 6.6294C10.2039 6.70292 8.85077 7.42456 7.84932 8.53114C7.50485 8.92866 7.26237 9.39073 7.02656 9.85952C6.8296 10.2403 6.8296 10.2403 6.60974 10.3216C6.43689 10.2919 6.43689 10.2919 6.28162 10.2265C6.16375 10.047 6.1692 9.96405 6.18787 9.75081C6.23569 9.62393 6.28386 9.51296 6.34607 9.39408C6.37124 9.34485 6.37124 9.34485 6.39692 9.29463C6.70884 8.69842 7.08332 8.18743 7.54724 7.70555C7.58132 7.66802 7.6154 7.6305 7.65052 7.59184C8.6829 6.48219 10.165 5.93143 11.6369 5.83543C11.6807 5.83244 11.7245 5.82946 11.7697 5.82638C11.8085 5.82411 11.8474 5.82183 11.8874 5.81949C12.0141 5.80097 12.1181 5.76018 12.2347 5.70784C12.2787 5.46764 12.2787 5.46764 12.2347 5.2322C10.3159 5.18081 8.59603 5.85092 7.18368 7.17416C6.95296 7.39677 6.75374 7.6378 6.56287 7.8958C6.52879 7.94154 6.49471 7.98728 6.4596 8.03441C5.52848 9.33931 5.09841 10.8098 5.15662 12.4144C5.21662 12.4235 5.27662 12.4326 5.33844 12.4419C5.37219 12.447 5.40594 12.4521 5.44072 12.4574C5.53686 12.4712 5.53686 12.4712 5.62244 12.4025C5.74722 12.194 5.73418 11.9625 5.74338 11.7265C5.7523 11.5541 5.76438 11.4184 5.85974 11.2729C5.9852 11.1739 6.05275 11.1779 6.21424 11.1837C6.37537 11.2253 6.37537 11.2253 6.45465 11.2974C6.54396 11.4694 6.53689 11.6361 6.53357 11.8258C6.53313 11.8641 6.53269 11.9025 6.53223 11.942C6.52319 12.305 6.46959 12.5938 6.27869 12.9049C6.03301 13.133 5.77008 13.2827 5.43201 13.2944C5.10999 13.2759 4.822 13.1751 4.59412 12.9376C4.365 12.6175 4.3234 12.3429 4.33338 11.9536C4.33412 11.9019 4.33486 11.8501 4.33563 11.7967C4.39094 9.75529 5.34134 7.84295 6.77964 6.44228C7.40648 5.85019 8.12868 5.39988 8.90662 5.04194C8.96281 5.01607 9.01901 4.9902 9.07691 4.96354C9.55352 4.75776 10.0424 4.63116 10.5472 4.51874C10.5981 4.5069 10.6489 4.49507 10.7012 4.48288C11.0476 4.41524 11.3996 4.40804 11.7513 4.39983Z" fill="black"/>
</g>
<defs>
<clipPath id="clip0_2812_650">
<rect width="24" height="24.3529" fill="white"/>
</clipPath>
</defs>
</svg>
