<svg width="80" height="80" viewBox="0 0 80 80" fill="none" xmlns="http://www.w3.org/2000/svg">
<path d="M55.1302 39.1265L55.0918 39.2273L55.1254 39.1353L55.1302 39.1265Z" fill="#B6B6B6"/>
<path d="M28.0012 8C18.1144 8 10 16.7103 10 27.3346C10 31.452 11.224 35.2889 13.288 38.4318L13.2142 38.3078L24.7378 59.7592L24.796 59.8413C25.2604 60.4939 25.72 61.0199 26.2762 61.416C26.8324 61.8121 27.5446 62.0621 28.2442 61.9865C29.6422 61.8353 30.4546 60.795 31.2052 59.6991L31.252 59.6313L43.9564 36.3473L43.9666 36.3279C44.2708 35.7367 44.491 35.1403 44.6794 34.5626C45.5504 32.2682 45.9989 29.8133 46 27.3346C46 16.7103 37.888 8 28.0012 8ZM28.0012 11.2308C36.2536 11.2308 43 18.4795 43 27.3346C42.9998 29.4028 42.6248 31.4511 41.896 33.3646L41.881 33.4047L41.8678 33.4467C41.71 33.9358 41.5384 34.3797 41.3404 34.7649L28.765 57.811C28.2088 58.6 27.82 58.7867 27.9448 58.7725C28.009 58.766 28.0684 58.8203 27.931 58.7221C27.7996 58.6284 27.5314 58.3538 27.2134 57.917L15.778 36.6252L15.7378 36.5651C14.014 33.9416 13 30.7644 13 27.3346C13 18.4802 19.7488 11.2308 28.0012 11.2308ZM28.0012 16.3032C22.324 16.3032 17.7322 21.2309 17.7322 27.3346C17.7322 33.4383 22.3246 38.3659 28.0012 38.3659C33.6778 38.3659 38.2678 33.4376 38.2678 27.3346C38.2678 21.2315 33.6778 16.3032 28.0012 16.3032ZM28.0012 19.5341C32.0914 19.5341 35.2678 22.9491 35.2678 27.3346C35.2678 31.7201 32.092 35.1351 28.0012 35.1351C23.9104 35.1351 20.7322 31.7195 20.7322 27.3346C20.7322 22.9491 23.911 19.5341 28.0012 19.5341Z" fill="#B6B6B6"/>
<path d="M18.4036 53C9.928 54.1611 4 56.9388 4 61.0277C4 66.5353 13.9048 71 28 71C42.0952 71 52 66.5353 52 61.0277C52 56.9388 46.0726 54.1611 37.5976 53L36.4234 54.9383C42.811 55.7975 47.2 57.6031 47.2 59.6984C47.2 62.6361 38.6038 65.0171 28 65.0171C17.3962 65.0171 8.8 62.6361 8.8 59.6984C8.7994 57.6101 13.1596 55.8062 19.567 54.9435L18.4036 53Z" fill="#B6B6B6"/>
<path d="M69.2476 52.5347L68.874 53.0958C68.9756 53.1634 69.0936 53.2021 69.2154 53.208C69.3373 53.2138 69.4584 53.1865 69.566 53.1289C69.6735 53.0713 69.7634 52.9856 69.8261 52.881C69.8888 52.7764 69.922 52.6567 69.922 52.5347H69.2476ZM65.2012 49.837L65.5748 49.2759C65.4641 49.2023 65.3341 49.163 65.2012 49.163C65.0682 49.163 64.9382 49.2023 64.8275 49.2759L65.2012 49.837ZM61.1547 52.5347H60.4803C60.4804 52.6567 60.5135 52.7764 60.5762 52.881C60.6389 52.9856 60.7288 53.0713 60.8364 53.1289C60.9439 53.1865 61.0651 53.2138 61.1869 53.208C61.3088 53.2021 61.4268 53.1634 61.5283 53.0958L61.1547 52.5347ZM69.6213 51.9736L65.5748 49.2759L64.8275 50.3981L68.874 53.0958L69.6213 51.9736ZM64.8275 49.2759L60.7811 51.9736L61.5283 53.0958L65.5748 50.3981L64.8275 49.2759ZM66.7429 27.0608L66.7995 27.1283L67.826 26.2542L67.7693 26.1868L66.7429 27.0608ZM69.6374 28.3045L69.7251 28.2964L69.6172 26.9529L69.5295 26.9597L69.6374 28.3045ZM71.9035 30.4761L71.8981 30.5637L73.2415 30.6716L73.2482 30.584L71.9035 30.4761ZM73.0729 33.4016L73.1403 33.4596L74.0144 32.4318L73.9469 32.3752L73.0729 33.4016ZM73.1403 36.5417L73.0729 36.5984L73.9469 37.6248L74.0144 37.5682L73.1403 36.5417ZM71.8981 39.4363L71.9048 39.5239L73.2482 39.416L73.2415 39.3284L71.8981 39.4363ZM69.7265 41.7023L69.6374 41.6955L69.5295 43.0403L69.6172 43.0471L69.7265 41.7023ZM66.7995 42.8717L66.7415 42.9392L67.7693 43.8132L67.826 43.7458L66.7995 42.8717ZM63.6608 42.9392L63.6028 42.8717L62.5764 43.7458L62.633 43.8132L63.6608 42.9392ZM60.7649 41.6969L60.6772 41.7036L60.7851 43.0471L60.8728 43.0403L60.7649 41.6969ZM58.4989 39.5253L58.5056 39.4363L57.1608 39.3284L57.1541 39.416L58.4989 39.5253ZM57.3295 36.5984L57.262 36.5404L56.388 37.5682L56.4554 37.6248L57.3295 36.5984ZM57.262 33.4596L57.3295 33.4016L56.4554 32.3752L56.388 32.4318L57.262 33.4596ZM58.5056 30.5637L58.4975 30.4761L57.1541 30.584L57.1608 30.6716L58.5056 30.5637ZM60.6772 28.2977L60.7649 28.3045L60.8728 26.9597L60.7851 26.9529L60.6772 28.2977ZM63.6042 27.1283L63.6595 27.0608L62.633 26.1868L62.5764 26.2542L63.6042 27.1283ZM60.7649 28.3045C61.2975 28.3474 61.8327 28.2631 62.3263 28.0586C62.82 27.8541 63.2579 27.5353 63.6042 27.1283L62.5764 26.2542C62.3686 26.4984 62.1058 26.6897 61.8096 26.8123C61.5134 26.935 61.1923 26.9855 60.8728 26.9597L60.7649 28.3045ZM58.4975 30.4761C58.474 30.1841 58.5154 29.8904 58.6164 29.6155C58.7175 29.3405 58.877 29.0907 59.084 28.8835C59.291 28.6762 59.5406 28.5164 59.8154 28.415C60.0903 28.3136 60.3839 28.2731 60.6759 28.2964L60.7851 26.9529C60.2984 26.9139 59.8076 26.981 59.3493 27.1496C58.8911 27.3183 58.4749 27.5845 58.1296 27.9298C57.7843 28.2751 57.5181 28.6912 57.3495 29.1495C57.1808 29.6078 57.115 30.0972 57.1541 30.584L58.4975 30.4761ZM57.3295 33.4016C57.7364 33.0554 58.0553 32.6188 58.2598 32.1251C58.4643 31.6315 58.5485 31.0963 58.5056 30.5637L57.1608 30.6716C57.1866 30.9912 57.1361 31.3123 57.0135 31.6084C56.8908 31.9046 56.6996 32.1674 56.4554 32.3752L57.3295 33.4016ZM57.262 36.5404C57.039 36.3504 56.8599 36.1143 56.737 35.8484C56.6142 35.5824 56.5506 35.2929 56.5506 35C56.5506 34.7071 56.6142 34.4176 56.737 34.1516C56.8599 33.8857 57.039 33.6496 57.262 33.4596L56.388 32.4318C56.0159 32.7484 55.7171 33.142 55.5122 33.5854C55.3073 34.0289 55.2012 34.5115 55.2012 35C55.2012 35.4885 55.3073 35.9711 55.5122 36.4146C55.7171 36.858 56.0159 37.2516 56.388 37.5682L57.262 36.5404ZM58.5056 39.4363C58.5483 38.9039 58.464 38.369 58.2595 37.8756C58.055 37.3822 57.7362 36.9444 57.3295 36.5984L56.4554 37.6248C56.6996 37.8326 56.8908 38.0954 57.0135 38.3916C57.1361 38.6877 57.1866 39.0088 57.1608 39.3284L58.5056 39.4363ZM60.6772 41.7023C60.3851 41.7259 60.0914 41.6858 59.8163 41.5846C59.5412 41.4835 59.2914 41.3239 59.0841 41.1167C58.8768 40.9096 58.717 40.6598 58.6157 40.3848C58.5144 40.1098 58.4741 39.8161 58.4975 39.5239L57.1541 39.416C57.1148 39.9029 57.1818 40.3925 57.3504 40.8509C57.5189 41.3094 57.7851 41.7257 58.1304 42.0711C58.4757 42.4166 58.892 42.6829 59.3503 42.8516C59.8087 43.0204 60.2983 43.0875 60.7851 43.0484L60.6772 41.7023ZM66.7415 42.9392C66.5516 43.1622 66.3155 43.3413 66.0495 43.4642C65.7836 43.587 65.4941 43.6506 65.2012 43.6506C64.9082 43.6506 64.6188 43.587 64.3528 43.4642C64.0869 43.3413 63.8508 43.1622 63.6608 42.9392L62.633 43.8132C62.9496 44.1852 63.3432 44.484 63.7866 44.689C64.23 44.8939 64.7127 45 65.2012 45C65.6897 45 66.1723 44.8939 66.6157 44.689C67.0592 44.484 67.4528 44.1852 67.7693 43.8132L66.7415 42.9392ZM71.9048 39.5239C71.9284 39.8162 71.8883 40.1101 71.7871 40.3852C71.6859 40.6604 71.5261 40.9103 71.3188 41.1176C71.1115 41.3249 70.8616 41.4847 70.5864 41.5859C70.3112 41.6871 70.0174 41.7273 69.7251 41.7036L69.6172 43.0471C70.1041 43.0863 70.5937 43.0194 71.0521 42.8508C71.5105 42.6822 71.9269 42.4161 72.2723 42.0708C72.6178 41.7255 72.8841 41.3092 73.0528 40.8508C73.2215 40.3925 73.2873 39.9029 73.2482 39.416L71.9048 39.5239ZM73.0729 36.597C72.6662 36.9434 72.3475 37.3814 72.1433 37.875C71.939 38.3687 71.855 38.9038 71.8981 39.4363L73.2415 39.3284C73.2157 39.0088 73.2662 38.6877 73.3889 38.3916C73.5115 38.0954 73.7028 37.8326 73.9469 37.6248L73.0729 36.597ZM73.1403 33.4596C73.3634 33.6496 73.5425 33.8857 73.6653 34.1516C73.7882 34.4176 73.8518 34.7071 73.8518 35C73.8518 35.2929 73.7882 35.5824 73.6653 35.8484C73.5425 36.1143 73.3634 36.3518 73.1403 36.5417L74.0144 37.5682C74.3864 37.2516 74.6852 36.858 74.8901 36.4146C75.095 35.9711 75.2012 35.4885 75.2012 35C75.2012 34.5115 75.095 34.0289 74.8901 33.5854C74.6852 33.142 74.3864 32.7484 74.0144 32.4318L73.1403 33.4596ZM71.8981 30.5637C71.8552 31.096 71.9394 31.6308 72.1436 32.1242C72.3479 32.6176 72.6664 33.0554 73.0729 33.4016L73.9469 32.3752C73.7028 32.1674 73.5115 31.9046 73.3889 31.6084C73.2662 31.3123 73.2157 30.9912 73.2415 30.6716L71.8981 30.5637ZM69.7265 28.2977C70.0185 28.2743 70.3121 28.3146 70.587 28.4158C70.8619 28.517 71.1115 28.6767 71.3187 28.8838C71.5258 29.091 71.6855 29.3406 71.7867 29.6155C71.8879 29.8904 71.9269 30.184 71.9035 30.4761L73.2482 30.584C73.2873 30.0971 73.2215 29.6075 73.0528 29.1492C72.8841 28.6908 72.6178 28.2745 72.2723 27.9292C71.9269 27.5839 71.5105 27.3178 71.0521 27.1492C70.5937 26.9806 70.1041 26.9137 69.6172 26.9529L69.7265 28.2977ZM66.7995 27.1283C67.1456 27.5351 67.5834 27.8538 68.0768 28.0583C68.5702 28.2628 69.1051 28.3472 69.6374 28.3045L69.5295 26.9597C69.21 26.9855 68.8889 26.935 68.5927 26.8123C68.2965 26.6897 68.0337 26.4984 67.826 26.2542L66.7995 27.1283ZM67.7693 26.1868C67.4528 25.8148 67.0592 25.516 66.6157 25.311C66.1723 25.1061 65.6897 25 65.2012 25C64.7127 25 64.23 25.1061 63.7866 25.311C63.3432 25.516 62.9496 25.8148 62.633 26.1868L63.6595 27.0608C63.8494 26.8378 64.0869 26.6587 64.3528 26.5358C64.6188 26.413 64.9082 26.3494 65.2012 26.3494C65.4941 26.3494 65.7836 26.413 66.0495 26.5358C66.3155 26.6587 66.5529 26.8378 66.7429 27.0608L67.7693 26.1868ZM63.6042 42.8717C63.3038 42.5189 62.9338 42.2317 62.5175 42.0282C62.1012 41.8246 61.6474 41.7078 61.1844 41.6875L61.125 43.0363C61.4027 43.0485 61.6749 43.1178 61.9246 43.2399C62.1743 43.3619 62.3962 43.5342 62.5764 43.7458L63.6042 42.8717ZM61.1844 41.6875C61.0445 41.6824 60.9045 41.686 60.7649 41.6955L60.8728 43.0403C60.9573 43.0331 61.0414 43.0318 61.125 43.0363L61.1844 41.6875ZM61.8291 52.5347V42.3619H60.4803V52.5347H61.8291ZM69.6388 41.6955C69.4987 41.686 69.3583 41.6838 69.218 41.6888L69.2773 43.0363C69.3609 43.0318 69.445 43.0331 69.5295 43.0403L69.6388 41.6955ZM69.218 41.6888C68.7552 41.7093 68.3017 41.8249 67.8856 42.0284C67.4695 42.232 67.0998 42.519 66.7995 42.8717L67.826 43.7458C68.0062 43.5342 68.2281 43.3619 68.4778 43.2399C68.7275 43.1178 68.9996 43.0485 69.2773 43.0363L69.218 41.6888ZM68.5732 42.3632V52.5347H69.922V42.3619L68.5732 42.3632Z" fill="#B6B6B6"/>
<path d="M67.8992 33.6501L63.8527 37.6966L62.5039 36.3478" stroke="#B6B6B6" stroke-linecap="round" stroke-linejoin="round"/>
</svg>
