<svg width="14" height="14" viewBox="0 0 14 14" fill="none" xmlns="http://www.w3.org/2000/svg">
<path d="M7 14C5.14348 14 3.36301 13.2625 2.05025 11.9497C0.737498 10.637 0 8.85651 0 7C0 5.14348 0.737498 3.36301 2.05025 2.05025C3.36301 0.737498 5.14348 0 7 0C8.85651 0 10.637 0.737498 11.9497 2.05025C13.2625 3.36301 14 5.14348 14 7C14 8.85651 13.2625 10.637 11.9497 11.9497C10.637 13.2625 8.85651 14 7 14ZM12.425 8.4C12.6621 7.48172 12.6621 6.51828 12.425 5.6H9.751C9.81544 6.53222 9.81544 7.46778 9.751 8.4H12.425ZM11.851 9.8H9.597C9.48005 10.6438 9.2566 11.4694 8.932 12.257C10.1617 11.8034 11.1942 10.9343 11.851 9.8ZM5.656 8.4H8.344C8.42001 7.46821 8.42001 6.53179 8.344 5.6H5.656C5.57999 6.53179 5.57999 7.46821 5.656 8.4ZM5.831 9.8C6.118 11.48 6.622 12.6 7 12.6C7.378 12.6 7.882 11.48 8.169 9.8H5.831ZM1.575 8.4H4.249C4.18456 7.46778 4.18456 6.53222 4.249 5.6H1.575C1.3379 6.51828 1.3379 7.48172 1.575 8.4ZM2.149 9.8C2.80578 10.9343 3.8383 11.8034 5.068 12.257C4.774 11.585 4.55 10.745 4.403 9.8H2.149ZM11.851 4.2C11.1942 3.06572 10.1617 2.19663 8.932 1.743C9.226 2.415 9.45 3.255 9.597 4.2H11.851ZM5.831 4.2H8.169C7.882 2.52 7.378 1.4 7 1.4C6.622 1.4 6.118 2.52 5.831 4.2ZM2.149 4.2H4.403C4.543 3.255 4.774 2.415 5.068 1.743C3.8383 2.19663 2.80578 3.06572 2.149 4.2Z" fill="white"/>
</svg>
