<svg width="26" height="15" viewBox="0 0 26 15" fill="none" xmlns="http://www.w3.org/2000/svg">
<path d="M12.2315 14.5674L0.94775 2.72476C0.75938 2.52716 0.654297 2.26463 0.654297 1.99163C0.654297 1.71863 0.75938 1.45611 0.94775 1.25851L0.9605 1.24576C1.05182 1.14963 1.16174 1.07309 1.28357 1.02079C1.4054 0.968485 1.5366 0.941512 1.66919 0.941512C1.80177 0.941512 1.93297 0.968485 2.05481 1.02079C2.17664 1.07309 2.28656 1.14963 2.37787 1.24576L13.0029 12.3978L23.6236 1.24576C23.7149 1.14963 23.8249 1.07309 23.9467 1.02079C24.0685 0.968485 24.1997 0.941512 24.3323 0.941512C24.4649 0.941512 24.5961 0.968485 24.7179 1.02079C24.8398 1.07309 24.9497 1.14963 25.041 1.24576L25.0538 1.25851C25.2421 1.45611 25.3472 1.71863 25.3472 1.99163C25.3472 2.26463 25.2421 2.52716 25.0538 2.72476L13.77 14.5674C13.6708 14.6715 13.5514 14.7545 13.4192 14.8111C13.287 14.8678 13.1446 14.897 13.0008 14.897C12.8569 14.897 12.7145 14.8678 12.5823 14.8111C12.4501 14.7545 12.3307 14.6715 12.2315 14.5674Z" fill="black"/>
</svg>
