<svg width="24" height="23" viewBox="0 0 24 23" fill="none" xmlns="http://www.w3.org/2000/svg">
<path d="M24 9.6H20.8V6.4H19.2V9.6H16V11.2H19.2V14.4H20.8V11.2H24V9.6ZM8 1.6C8.79113 1.6 9.56448 1.8346 10.2223 2.27412C10.8801 2.71365 11.3928 3.33836 11.6955 4.06927C11.9983 4.80017 12.0775 5.60444 11.9231 6.38036C11.7688 7.15629 11.3878 7.86902 10.8284 8.42843C10.269 8.98784 9.55628 9.3688 8.78036 9.52314C8.00444 9.67748 7.20017 9.59827 6.46927 9.29552C5.73836 8.99277 5.11365 8.48008 4.67412 7.82228C4.2346 7.16448 4 6.39113 4 5.6C4 4.53913 4.42143 3.52172 5.17157 2.77157C5.92172 2.02143 6.93913 1.6 8 1.6ZM8 0C6.89242 0 5.80972 0.328434 4.88881 0.94377C3.96789 1.55911 3.25013 2.43371 2.82627 3.45697C2.40242 4.48024 2.29153 5.60621 2.5076 6.69251C2.72368 7.7788 3.25703 8.77662 4.0402 9.5598C4.82338 10.343 5.8212 10.8763 6.90749 11.0924C7.99379 11.3085 9.11976 11.1976 10.143 10.7737C11.1663 10.3499 12.0409 9.63211 12.6562 8.71119C13.2716 7.79028 13.6 6.70758 13.6 5.6C13.6 4.11479 13.01 2.69041 11.9598 1.6402C10.9096 0.589998 9.48521 0 8 0ZM16 22.4H14.4V18.4C14.4 17.3391 13.9786 16.3217 13.2284 15.5716C12.4783 14.8214 11.4609 14.4 10.4 14.4H5.6C4.53913 14.4 3.52172 14.8214 2.77157 15.5716C2.02143 16.3217 1.6 17.3391 1.6 18.4V22.4H0V18.4C0 16.9148 0.589998 15.4904 1.6402 14.4402C2.69041 13.39 4.11479 12.8 5.6 12.8H10.4C11.8852 12.8 13.3096 13.39 14.3598 14.4402C15.41 15.4904 16 16.9148 16 18.4V22.4Z" fill="white"/>
</svg>
