<svg width="17" height="17" viewBox="0 0 17 17" fill="none" xmlns="http://www.w3.org/2000/svg">
<path d="M2.58735 1.02902L1.87056 1.50181C1.23239 1.923 0.727828 2.51773 0.416249 3.21599C0.10467 3.91426 -0.000954269 4.68701 0.111809 5.44328C0.464687 7.81281 1.98831 10.2513 4.65794 12.772C7.32089 15.2863 9.83755 16.6668 12.2196 16.8882C12.9849 16.9593 13.7546 16.8091 14.4371 16.4555C15.1196 16.1019 15.6862 15.5598 16.0695 14.8936L16.4962 14.1509C16.7734 13.6693 16.8664 13.1035 16.7579 12.5585C16.6494 12.0136 16.3467 11.5266 15.9061 11.188L13.7989 9.5679C13.5141 9.34927 13.1681 9.22522 12.8093 9.21315C12.4504 9.20108 12.0968 9.30159 11.798 9.50059L9.75064 10.863L9.69569 10.8914C9.45824 11.0019 8.72415 10.6361 7.64023 9.61251C6.50627 8.54163 6.12618 7.83065 6.27317 7.57367L7.0995 6.16215C7.40126 5.64613 7.53416 5.04867 7.4796 4.45339C7.42504 3.8581 7.18575 3.29476 6.79522 2.84218L5.58481 1.4435C5.22073 1.02255 4.716 0.748363 4.16471 0.672045C3.61342 0.595727 3.05209 0.722814 2.58735 1.02902ZM4.7197 2.1928L5.92791 3.59215C6.16233 3.86354 6.30606 4.20142 6.33899 4.55853C6.37192 4.91564 6.29241 5.27411 6.11157 5.5838L5.28228 6.9974C4.75441 7.91399 5.35366 9.02981 6.85412 10.4459C8.26503 11.7787 9.35096 12.3206 10.2215 11.9095L10.3491 11.8402L12.4339 10.4547C12.5335 10.3882 12.6514 10.3546 12.771 10.3585C12.8907 10.3625 13.0061 10.4038 13.1011 10.4766L15.2083 12.0967C15.4288 12.2659 15.5804 12.5095 15.6348 12.782C15.6892 13.0546 15.6427 13.3377 15.5041 13.5785L15.0763 14.3216C14.8024 14.7972 14.3977 15.1843 13.9103 15.4367C13.4229 15.6891 12.8733 15.7963 12.3268 15.7455C10.2367 15.5517 7.93901 14.2913 5.44626 11.9379C2.94714 9.57925 1.55544 7.3539 1.2461 5.27415C1.16545 4.73387 1.24085 4.1818 1.46341 3.68294C1.68598 3.18407 2.04644 2.75918 2.50237 2.45829L3.21915 1.98551C3.4516 1.83242 3.73179 1.76911 4.00748 1.80737C4.28317 1.84563 4.53553 1.98286 4.7175 2.19346" fill="white"/>
</svg>
