<svg width="24" height="23" viewBox="0 0 24 23" fill="none" xmlns="http://www.w3.org/2000/svg">
<path d="M16.5288 15.7415L23.7243 8.66438L23.8155 8.56038C23.9496 8.37871 24.0141 8.15501 23.9974 7.92985C23.9807 7.70469 23.8838 7.49298 23.7243 7.33312L16.5288 0.259182L16.4296 0.174378C15.8536 -0.257643 15.0055 0.158377 15.0055 0.924814V4.33298L14.6455 4.35698C8.94443 4.8082 5.60507 8.41637 4.80823 14.9607C4.70583 15.8007 5.66907 16.3272 6.2931 15.7703C8.58281 13.7254 10.9493 12.455 13.4054 11.9461C13.7991 11.864 14.1948 11.8016 14.5927 11.7589L15.0055 11.7221V15.0759L15.0135 15.2071C15.1095 15.9319 15.988 16.2728 16.5288 15.7415ZM14.7623 5.95225L16.6056 5.82905V2.57609L22.1195 7.99715L16.6056 13.4214V9.97005L14.4359 10.1653H14.4231C11.6982 10.4581 9.12684 11.5493 6.69952 13.3686C7.17635 11.2261 7.99079 9.61483 9.06124 8.46118C10.3893 7.02911 12.2454 6.15386 14.7623 5.95225ZM4.00019 1.60005C2.93928 1.60005 1.92181 2.02149 1.17163 2.77168C0.421448 3.52186 0 4.53932 0 5.60024V18.4009C0 19.4618 0.421448 20.4792 1.17163 21.2294C1.92181 21.9796 2.93928 22.401 4.00019 22.401H16.8008C17.8617 22.401 18.8792 21.9796 19.6294 21.2294C20.3796 20.4792 20.801 19.4618 20.801 18.4009V16.8008C20.801 16.5886 20.7167 16.3851 20.5667 16.2351C20.4166 16.085 20.2131 16.0007 20.001 16.0007C19.7888 16.0007 19.5853 16.085 19.4353 16.2351C19.2852 16.3851 19.2009 16.5886 19.2009 16.8008V18.4009C19.2009 19.0374 18.9481 19.6479 18.4979 20.098C18.0478 20.5481 17.4374 20.801 16.8008 20.801H4.00019C3.36364 20.801 2.75316 20.5481 2.30305 20.098C1.85295 19.6479 1.60008 19.0374 1.60008 18.4009V5.60024C1.60008 4.96369 1.85295 4.35321 2.30305 3.9031C2.75316 3.45299 3.36364 3.20012 4.00019 3.20012H8.80042C9.01261 3.20012 9.2161 3.11583 9.36614 2.9658C9.51617 2.81576 9.60046 2.61227 9.60046 2.40008C9.60046 2.1879 9.51617 1.98441 9.36614 1.83437C9.2161 1.68434 9.01261 1.60005 8.80042 1.60005H4.00019Z" fill="white"/>
</svg>
