<svg width="6" height="12" viewBox="0 0 6 12" fill="none" xmlns="http://www.w3.org/2000/svg">
<path d="M1.02542 6.14367L5.87543 1.15945C5.91536 1.11928 5.94693 1.07159 5.96831 1.01914C5.98969 0.966697 6.00046 0.91053 5.99999 0.853894C5.99952 0.797258 5.98782 0.741278 5.96557 0.689193C5.94332 0.637108 5.91096 0.589952 5.87037 0.550455C5.82978 0.510957 5.78176 0.479901 5.72908 0.459086C5.67641 0.43827 5.62013 0.428107 5.5635 0.429185C5.50687 0.430263 5.45102 0.442561 5.39918 0.465367C5.34734 0.488172 5.30053 0.521033 5.26147 0.562047L0.12133 5.84497C0.04353 5.92493 0 6.0321 0 6.14367C0 6.25524 0.04353 6.3624 0.12133 6.44237L5.26147 11.7253C5.30053 11.7663 5.34734 11.7992 5.39918 11.822C5.45102 11.8448 5.50687 11.8571 5.5635 11.8582C5.62013 11.8592 5.67641 11.8491 5.72908 11.8283C5.78176 11.8074 5.82978 11.7764 5.87037 11.7369C5.91096 11.6974 5.94332 11.6502 5.96557 11.5981C5.98782 11.5461 5.99952 11.4901 5.99999 11.4334C6.00046 11.3768 5.98969 11.3206 5.96831 11.2682C5.94693 11.2157 5.91536 11.1681 5.87543 11.1279L1.02542 6.14367Z" fill="black"/>
</svg>
