<svg width="14" height="12" viewBox="0 0 14 12" fill="none" xmlns="http://www.w3.org/2000/svg">
<path d="M2.21053 0H11.7895C12.3757 0 12.938 0.232894 13.3526 0.647448C13.7671 1.062 14 1.62426 14 2.21053V8.84211C14 9.42837 13.7671 9.99063 13.3526 10.4052C12.938 10.8197 12.3757 11.0526 11.7895 11.0526H2.21053C1.62426 11.0526 1.062 10.8197 0.647448 10.4052C0.232894 9.99063 0 9.42837 0 8.84211V2.21053C0 1.62426 0.232894 1.062 0.647448 0.647448C1.062 0.232894 1.62426 0 2.21053 0ZM2.21053 0.736842C1.84211 0.736842 1.51789 0.862105 1.26737 1.08316L7 4.78947L12.7326 1.08316C12.4821 0.862105 12.1579 0.736842 11.7895 0.736842H2.21053ZM7 5.68105L0.832632 1.68C0.773684 1.84211 0.736842 2.02632 0.736842 2.21053V8.84211C0.736842 9.23295 0.892105 9.60779 1.16847 9.88416C1.44484 10.1605 1.81968 10.3158 2.21053 10.3158H11.7895C12.1803 10.3158 12.5552 10.1605 12.8315 9.88416C13.1079 9.60779 13.2632 9.23295 13.2632 8.84211V2.21053C13.2632 2.02632 13.2263 1.84211 13.1674 1.68L7 5.68105Z" fill="white"/>
</svg>
