<svg width="6" height="12" viewBox="0 0 6 12" fill="none" xmlns="http://www.w3.org/2000/svg">
<path d="M4.97458 5.71455L0.124569 10.6988C0.0846386 10.7389 0.0530701 10.7866 0.0316901 10.8391C0.0103106 10.8915 -0.000455856 10.9477 1.43051e-05 11.0043C0.000484943 11.061 0.0121827 11.1169 0.034431 11.169C0.0566792 11.2211 0.0890355 11.2683 0.129628 11.3078C0.170221 11.3473 0.218244 11.3783 0.270917 11.3991C0.323591 11.4199 0.379871 11.4301 0.436499 11.429C0.493126 11.428 0.548978 11.4157 0.600821 11.3928C0.652665 11.37 0.69947 11.3372 0.73853 11.2962L5.87867 6.01325C5.95647 5.93328 6 5.82612 6 5.71455C6 5.60298 5.95647 5.49581 5.87867 5.41585L0.73853 0.132925C0.69947 0.0919104 0.652665 0.0590506 0.600821 0.0362453C0.548978 0.0134392 0.493126 0.00114155 0.436499 6.38962e-05C0.379871 -0.00101471 0.323591 0.0091486 0.270917 0.0299635C0.218244 0.0507793 0.170221 0.0818348 0.129628 0.121332C0.0890355 0.16083 0.0566792 0.207986 0.034431 0.260072C0.0121827 0.312157 0.000484943 0.368136 1.43051e-05 0.424772C-0.000455856 0.481408 0.0103106 0.537576 0.0316901 0.590023C0.0530701 0.64247 0.0846386 0.690158 0.124569 0.730324L4.97458 5.71455Z" fill="black"/>
</svg>
