<svg width="24" height="23" viewBox="0 0 24 23" fill="none" xmlns="http://www.w3.org/2000/svg">
<path d="M4.66667 14H14V12.6667H4.66667V14ZM4.66667 10H19.3333V8.66667H4.66667V10ZM4.66667 6H19.3333V4.66667H4.66667V6ZM0 22.7693V2.15467C0 1.54044 0.205778 1.028 0.617333 0.617333C1.02889 0.206667 1.54089 0.000888889 2.15333 0H21.8467C22.46 0 22.972 0.205778 23.3827 0.617333C23.7933 1.02889 23.9991 1.54133 24 2.15467V16.5133C24 17.1267 23.7942 17.6391 23.3827 18.0507C22.9711 18.4622 22.4591 18.6676 21.8467 18.6667H4.10267L0 22.7693ZM3.53333 17.3333H21.8467C22.0511 17.3333 22.2391 17.248 22.4107 17.0773C22.5822 16.9067 22.6676 16.7187 22.6667 16.5133V2.15333C22.6667 1.94889 22.5813 1.76089 22.4107 1.58933C22.24 1.41778 22.052 1.33244 21.8467 1.33333H2.15333C1.94889 1.33333 1.76089 1.41867 1.58933 1.58933C1.41778 1.76 1.33244 1.948 1.33333 2.15333V19.5267L3.53333 17.3333Z" fill="white"/>
</svg>
