<svg width="80" height="80" viewBox="0 0 80 80" fill="none" xmlns="http://www.w3.org/2000/svg">
<path d="M13.334 59.9998C13.334 56.4636 14.7387 53.0722 17.2392 50.5717C19.7397 48.0713 23.1311 46.6665 26.6673 46.6665H53.334C56.8702 46.6665 60.2616 48.0713 62.7621 50.5717C65.2626 53.0722 66.6673 56.4636 66.6673 59.9998C66.6673 61.7679 65.9649 63.4636 64.7147 64.7139C63.4645 65.9641 61.7688 66.6665 60.0006 66.6665H20.0007C18.2325 66.6665 16.5368 65.9641 15.2866 64.7139C14.0364 63.4636 13.334 61.7679 13.334 59.9998Z" stroke="#F55256" stroke-width="1.5" stroke-linejoin="round"/>
<path d="M40 33.3333C45.5228 33.3333 50 28.8561 50 23.3333C50 17.8104 45.5228 13.3333 40 13.3333C34.4772 13.3333 30 17.8104 30 23.3333C30 28.8561 34.4772 33.3333 40 33.3333Z" stroke="#F55256" stroke-width="1.5"/>
<path d="M74.4412 46.5625L74.1055 47.0667C74.1968 47.1274 74.3028 47.1623 74.4123 47.1675C74.5218 47.1728 74.6307 47.1482 74.7273 47.0964C74.824 47.0447 74.9048 46.9677 74.9611 46.8737C75.0175 46.7796 75.0472 46.6721 75.0473 46.5625H74.4412ZM70.8049 44.1382L71.1406 43.634C71.0412 43.5678 70.9244 43.5325 70.8049 43.5325C70.6854 43.5325 70.5686 43.5678 70.4691 43.634L70.8049 44.1382ZM67.1685 46.5625H66.5625C66.5625 46.6721 66.5923 46.7796 66.6487 46.8737C66.705 46.9677 66.7858 47.0447 66.8825 47.0964C66.9791 47.1482 67.088 47.1728 67.1975 47.1675C67.307 47.1623 67.413 47.1274 67.5043 47.0667L67.1685 46.5625ZM74.777 46.0582L71.1406 43.634L70.4691 44.6425L74.1055 47.0667L74.777 46.0582ZM70.4691 43.634L66.8328 46.0582L67.5043 47.0667L71.1406 44.6425L70.4691 43.634ZM72.1903 23.6703L72.2412 23.7309L73.1637 22.9455L73.1128 22.8849L72.1903 23.6703ZM74.7915 24.7879L74.8703 24.7806L74.7734 23.5734L74.6946 23.5794L74.7915 24.7879ZM76.8279 26.7394L76.8231 26.8182L78.0303 26.9152L78.0364 26.8364L76.8279 26.7394ZM77.8788 29.3685L77.9394 29.4206L78.7249 28.497L78.6643 28.4461L77.8788 29.3685ZM77.9394 32.1903L77.8788 32.2412L78.6643 33.1637L78.7249 33.1128L77.9394 32.1903ZM76.8231 34.7915L76.8291 34.8703L78.0364 34.7734L78.0303 34.6946L76.8231 34.7915ZM74.8715 36.8279L74.7915 36.8219L74.6946 38.0303L74.7734 38.0364L74.8715 36.8279ZM72.2412 37.8788L72.1891 37.9394L73.1128 38.7249L73.1637 38.6643L72.2412 37.8788ZM69.4206 37.9394L69.3685 37.8788L68.4461 38.6643L68.497 38.7249L69.4206 37.9394ZM66.8182 36.8231L66.7394 36.8291L66.8364 38.0364L66.9152 38.0303L66.8182 36.8231ZM64.7819 34.8715L64.7879 34.7915L63.5794 34.6946L63.5734 34.7734L64.7819 34.8715ZM63.7309 32.2412L63.6703 32.1891L62.8849 33.1128L62.9455 33.1637L63.7309 32.2412ZM63.6703 29.4206L63.7309 29.3685L62.9455 28.4461L62.8849 28.497L63.6703 29.4206ZM64.7879 26.8182L64.7806 26.7394L63.5734 26.8364L63.5794 26.9152L64.7879 26.8182ZM66.7394 24.7819L66.8182 24.7879L66.9152 23.5794L66.8364 23.5734L66.7394 24.7819ZM69.3697 23.7309L69.4194 23.6703L68.497 22.8849L68.4461 22.9455L69.3697 23.7309ZM66.8182 24.7879C67.2968 24.8265 67.7778 24.7508 68.2214 24.567C68.665 24.3832 69.0586 24.0967 69.3697 23.7309L68.4461 22.9455C68.2594 23.1649 68.0232 23.3368 67.7571 23.447C67.4909 23.5572 67.2023 23.6026 66.9152 23.5794L66.8182 24.7879ZM64.7806 26.7394C64.7595 26.477 64.7967 26.2132 64.8875 25.9661C64.9783 25.719 65.1217 25.4945 65.3077 25.3083C65.4937 25.122 65.718 24.9783 65.965 24.8872C66.212 24.7962 66.4758 24.7598 66.7382 24.7806L66.8364 23.5734C66.399 23.5383 65.9579 23.5986 65.5461 23.7501C65.1343 23.9017 64.7603 24.1409 64.45 24.4512C64.1397 24.7615 63.9005 25.1355 63.7489 25.5473C63.5974 25.9591 63.5383 26.399 63.5734 26.8364L64.7806 26.7394ZM63.7309 29.3685C64.0967 29.0574 64.3832 28.665 64.567 28.2214C64.7508 27.7778 64.8265 27.2968 64.7879 26.8182L63.5794 26.9152C63.6026 27.2023 63.5572 27.4909 63.447 27.7571C63.3368 28.0232 63.1649 28.2594 62.9455 28.4461L63.7309 29.3685ZM63.6703 32.1891C63.4699 32.0184 63.3089 31.8063 63.1985 31.5673C63.0882 31.3283 63.031 31.0681 63.031 30.8049C63.031 30.5416 63.0882 30.2815 63.1985 30.0425C63.3089 29.8035 63.4699 29.5913 63.6703 29.4206L62.8849 28.497C62.5506 28.7815 62.282 29.1352 62.0979 29.5337C61.9137 29.9322 61.8184 30.3659 61.8184 30.8049C61.8184 31.2439 61.9137 31.6776 62.0979 32.0761C62.282 32.4746 62.5506 32.8283 62.8849 33.1128L63.6703 32.1891ZM64.7879 34.7915C64.8263 34.3131 64.7505 33.8324 64.5667 33.389C64.383 32.9457 64.0965 32.5523 63.7309 32.2412L62.9455 33.1637C63.1649 33.3504 63.3368 33.5865 63.447 33.8527C63.5572 34.1189 63.6026 34.4074 63.5794 34.6946L64.7879 34.7915ZM66.7394 36.8279C66.4769 36.8491 66.2129 36.813 65.9657 36.7222C65.7185 36.6313 65.494 36.4879 65.3078 36.3017C65.1215 36.1155 64.9779 35.8911 64.8868 35.644C64.7958 35.3968 64.7596 35.1329 64.7806 34.8703L63.5734 34.7734C63.5381 35.2109 63.5982 35.6509 63.7497 36.0628C63.9012 36.4748 64.1404 36.8489 64.4507 37.1594C64.761 37.4698 65.1351 37.7091 65.547 37.8608C65.9589 38.0124 66.3989 38.0727 66.8364 38.0376L66.7394 36.8279ZM72.1891 37.9394C72.0184 38.1399 71.8063 38.3008 71.5673 38.4112C71.3283 38.5216 71.0681 38.5788 70.8049 38.5788C70.5416 38.5788 70.2815 38.5216 70.0425 38.4112C69.8035 38.3008 69.5913 38.1399 69.4206 37.9394L68.497 38.7249C68.7815 39.0592 69.1352 39.3277 69.5337 39.5119C69.9322 39.696 70.3659 39.7914 70.8049 39.7914C71.2439 39.7914 71.6776 39.696 72.0761 39.5119C72.4746 39.3277 72.8283 39.0592 73.1128 38.7249L72.1891 37.9394ZM76.8291 34.8703C76.8504 35.133 76.8143 35.3971 76.7233 35.6443C76.6324 35.8916 76.4888 36.1162 76.3025 36.3025C76.1162 36.4888 75.8916 36.6324 75.6443 36.7233C75.3971 36.8143 75.133 36.8504 74.8703 36.8291L74.7734 38.0364C75.2109 38.0717 75.6509 38.0115 76.0628 37.86C76.4748 37.7085 76.8489 37.4694 77.1594 37.1591C77.4698 36.8487 77.7091 36.4747 77.8608 36.0628C78.0124 35.6508 78.0715 35.2109 78.0364 34.7734L76.8291 34.8703ZM77.8788 32.24C77.5133 32.5513 77.227 32.9449 77.0434 33.3885C76.8599 33.8322 76.7843 34.313 76.8231 34.7915L78.0303 34.6946C78.0072 34.4074 78.0526 34.1189 78.1628 33.8527C78.273 33.5865 78.4449 33.3504 78.6643 33.1637L77.8788 32.24ZM77.9394 29.4206C78.1399 29.5913 78.3008 29.8035 78.4112 30.0425C78.5216 30.2815 78.5788 30.5416 78.5788 30.8049C78.5788 31.0681 78.5216 31.3283 78.4112 31.5673C78.3008 31.8063 78.1399 32.0196 77.9394 32.1903L78.7249 33.1128C79.0592 32.8283 79.3277 32.4746 79.5119 32.0761C79.696 31.6776 79.7914 31.2439 79.7914 30.8049C79.7914 30.3659 79.696 29.9322 79.5119 29.5337C79.3277 29.1352 79.0592 28.7815 78.7249 28.497L77.9394 29.4206ZM76.8231 26.8182C76.7845 27.2965 76.8602 27.7772 77.0437 28.2206C77.2273 28.6639 77.5135 29.0574 77.8788 29.3685L78.6643 28.4461C78.4449 28.2594 78.273 28.0232 78.1628 27.7571C78.0526 27.4909 78.0072 27.2023 78.0303 26.9152L76.8231 26.8182ZM74.8715 24.7819C75.134 24.7608 75.3978 24.797 75.6449 24.888C75.8919 24.9789 76.1163 25.1224 76.3024 25.3086C76.4885 25.4947 76.6321 25.7191 76.723 25.9661C76.8139 26.2132 76.8489 26.477 76.8279 26.7394L78.0364 26.8364C78.0715 26.3989 78.0124 25.9589 77.8608 25.547C77.7091 25.1351 77.4698 24.761 77.1594 24.4507C76.8489 24.1404 76.4748 23.9012 76.0628 23.7497C75.6509 23.5982 75.2109 23.5381 74.7734 23.5734L74.8715 24.7819ZM72.2412 23.7309C72.5523 24.0965 72.9457 24.383 73.389 24.5667C73.8324 24.7505 74.3131 24.8263 74.7915 24.7879L74.6946 23.5794C74.4074 23.6026 74.1189 23.5572 73.8527 23.447C73.5865 23.3368 73.3504 23.1649 73.1637 22.9455L72.2412 23.7309ZM73.1128 22.8849C72.8283 22.5506 72.4746 22.282 72.0761 22.0979C71.6776 21.9137 71.2439 21.8184 70.8049 21.8184C70.3659 21.8184 69.9322 21.9137 69.5337 22.0979C69.1352 22.282 68.7815 22.5506 68.497 22.8849L69.4194 23.6703C69.5901 23.4699 69.8035 23.3089 70.0425 23.1985C70.2815 23.0882 70.5416 23.031 70.8049 23.031C71.0681 23.031 71.3283 23.0882 71.5673 23.1985C71.8063 23.3089 72.0196 23.4699 72.1903 23.6703L73.1128 22.8849ZM69.3697 37.8788C69.0998 37.5617 68.7673 37.3037 68.3932 37.1208C68.0191 36.9379 67.6112 36.8328 67.1952 36.8146L67.1419 38.0267C67.3914 38.0377 67.636 38.1 67.8604 38.2097C68.0848 38.3194 68.2842 38.4741 68.4461 38.6643L69.3697 37.8788ZM67.1952 36.8146C67.0695 36.8101 66.9437 36.8133 66.8182 36.8219L66.9152 38.0303C66.9911 38.0239 67.0667 38.0227 67.1419 38.0267L67.1952 36.8146ZM67.7746 46.5625V37.4206H66.5625V46.5625H67.7746ZM74.7928 36.8219C74.6669 36.8133 74.5407 36.8112 74.4146 36.8158L74.4679 38.0267C74.5431 38.0227 74.6186 38.0239 74.6946 38.0303L74.7928 36.8219ZM74.4146 36.8158C73.9987 36.8342 73.5911 36.9381 73.2172 37.121C72.8433 37.3039 72.5111 37.5619 72.2412 37.8788L73.1637 38.6643C73.3256 38.4741 73.525 38.3194 73.7494 38.2097C73.9738 38.1 74.2184 38.0377 74.4679 38.0267L74.4146 36.8158ZM73.8352 37.4219V46.5625H75.0473V37.4206L73.8352 37.4219Z" fill="#F55256"/>
<path d="M73.2293 29.5928L69.593 33.2291L68.3809 32.017" stroke="#F55256" stroke-linecap="round" stroke-linejoin="round"/>
</svg>
